<?xml version="1.0" encoding="UTF-8" standalone="no"?>
<!DOCTYPE svg PUBLIC "-//W3C//DTD SVG 1.1//EN"
 "http://www.w3.org/Graphics/SVG/1.1/DTD/svg11.dtd">
<!-- Generated by graphviz version 14.0.2 (20251019.1705)
 -->
<!-- Title: G Pages: 1 -->
<svg width="782pt" height="183pt"
 viewBox="0.00 0.00 782.00 183.00" xmlns="http://www.w3.org/2000/svg" xmlns:xlink="http://www.w3.org/1999/xlink">
<g id="graph0" class="graph" transform="scale(1 1) rotate(0) translate(4 178.69)">
<title>G</title>
<polygon fill="white" stroke="none" points="-4,4 -4,-178.69 778,-178.69 778,4 -4,4"/>
<!-- element0 -->
<g id="node1" class="node">
<title>element0</title>
<path fill="lightgrey" stroke="black" d="M12,-76.19C12,-76.19 42,-76.19 42,-76.19 48,-76.19 54,-82.19 54,-88.19 54,-88.19 54,-162.19 54,-162.19 54,-168.19 48,-174.19 42,-174.19 42,-174.19 12,-174.19 12,-174.19 6,-174.19 0,-168.19 0,-162.19 0,-162.19 0,-88.19 0,-88.19 0,-82.19 6,-76.19 12,-76.19"/>
<text xml:space="preserve" text-anchor="middle" x="27" y="-156.89" font-family="Times,serif" font-size="14.00">pos: 0</text>
<polyline fill="none" stroke="black" points="0,-149.69 54,-149.69"/>
<text xml:space="preserve" text-anchor="middle" x="27" y="-132.39" font-family="Times,serif" font-size="14.00">0</text>
<polyline fill="none" stroke="black" points="0,-125.19 54,-125.19"/>
<text xml:space="preserve" text-anchor="middle" x="27" y="-107.89" font-family="Times,serif" font-size="14.00">&#45;1</text>
<polyline fill="none" stroke="black" points="0,-100.69 54,-100.69"/>
<text xml:space="preserve" text-anchor="middle" x="27" y="-83.39" font-family="Times,serif" font-size="14.00">0</text>
</g>
<!-- element1 -->
<g id="node2" class="node">
<title>element1</title>
<path fill="lightgrey" stroke="black" d="M102,-76.19C102,-76.19 132,-76.19 132,-76.19 138,-76.19 144,-82.19 144,-88.19 144,-88.19 144,-162.19 144,-162.19 144,-168.19 138,-174.19 132,-174.19 132,-174.19 102,-174.19 102,-174.19 96,-174.19 90,-168.19 90,-162.19 90,-162.19 90,-88.19 90,-88.19 90,-82.19 96,-76.19 102,-76.19"/>
<text xml:space="preserve" text-anchor="middle" x="117" y="-156.89" font-family="Times,serif" font-size="14.00">pos: 1</text>
<polyline fill="none" stroke="black" points="90,-149.69 144,-149.69"/>
<text xml:space="preserve" text-anchor="middle" x="117" y="-132.39" font-family="Times,serif" font-size="14.00">&#45;1</text>
<polyline fill="none" stroke="black" points="90,-125.19 144,-125.19"/>
<text xml:space="preserve" text-anchor="middle" x="117" y="-107.89" font-family="Times,serif" font-size="14.00">&#45;1</text>
<polyline fill="none" stroke="black" points="90,-100.69 144,-100.69"/>
<text xml:space="preserve" text-anchor="middle" x="117" y="-83.39" font-family="Times,serif" font-size="14.00">&#45;1</text>
</g>
<!-- element0&#45;&gt;element1 -->
<!-- element2 -->
<g id="node3" class="node">
<title>element2</title>
<path fill="lightgrey" stroke="black" d="M192,-76.19C192,-76.19 222,-76.19 222,-76.19 228,-76.19 234,-82.19 234,-88.19 234,-88.19 234,-162.19 234,-162.19 234,-168.19 228,-174.19 222,-174.19 222,-174.19 192,-174.19 192,-174.19 186,-174.19 180,-168.19 180,-162.19 180,-162.19 180,-88.19 180,-88.19 180,-82.19 186,-76.19 192,-76.19"/>
<text xml:space="preserve" text-anchor="middle" x="207" y="-156.89" font-family="Times,serif" font-size="14.00">pos: 2</text>
<polyline fill="none" stroke="black" points="180,-149.69 234,-149.69"/>
<text xml:space="preserve" text-anchor="middle" x="207" y="-132.39" font-family="Times,serif" font-size="14.00">0</text>
<polyline fill="none" stroke="black" points="180,-125.19 234,-125.19"/>
<text xml:space="preserve" text-anchor="middle" x="207" y="-107.89" font-family="Times,serif" font-size="14.00">20</text>
<polyline fill="none" stroke="black" points="180,-100.69 234,-100.69"/>
<text xml:space="preserve" text-anchor="middle" x="207" y="-83.39" font-family="Times,serif" font-size="14.00">4</text>
</g>
<!-- element1&#45;&gt;element2 -->
<!-- element2&#45;&gt;element0 -->
<g id="edge9" class="edge">
<title>element2&#45;&gt;element0</title>
<path fill="none" stroke="#0000ff" d="M179.65,-92.25C169.67,-82.24 157.44,-72.5 144,-67.19 121.68,-58.38 112.32,-58.38 90,-67.19 80.13,-71.09 70.91,-77.38 62.76,-84.41"/>
<polygon fill="#0000ff" stroke="#0000ff" points="60.38,-81.84 55.45,-91.22 65.15,-86.96 60.38,-81.84"/>
</g>
<!-- element3 -->
<g id="node4" class="node">
<title>element3</title>
<path fill="lightgrey" stroke="black" d="M282,-76.19C282,-76.19 312,-76.19 312,-76.19 318,-76.19 324,-82.19 324,-88.19 324,-88.19 324,-162.19 324,-162.19 324,-168.19 318,-174.19 312,-174.19 312,-174.19 282,-174.19 282,-174.19 276,-174.19 270,-168.19 270,-162.19 270,-162.19 270,-88.19 270,-88.19 270,-82.19 276,-76.19 282,-76.19"/>
<text xml:space="preserve" text-anchor="middle" x="297" y="-156.89" font-family="Times,serif" font-size="14.00">pos: 3</text>
<polyline fill="none" stroke="black" points="270,-149.69 324,-149.69"/>
<text xml:space="preserve" text-anchor="middle" x="297" y="-132.39" font-family="Times,serif" font-size="14.00">&#45;1</text>
<polyline fill="none" stroke="black" points="270,-125.19 324,-125.19"/>
<text xml:space="preserve" text-anchor="middle" x="297" y="-107.89" font-family="Times,serif" font-size="14.00">&#45;1</text>
<polyline fill="none" stroke="black" points="270,-100.69 324,-100.69"/>
<text xml:space="preserve" text-anchor="middle" x="297" y="-83.39" font-family="Times,serif" font-size="14.00">&#45;1</text>
</g>
<!-- element2&#45;&gt;element3 -->
<!-- element4 -->
<g id="node5" class="node">
<title>element4</title>
<path fill="lightgrey" stroke="black" d="M372,-76.19C372,-76.19 402,-76.19 402,-76.19 408,-76.19 414,-82.19 414,-88.19 414,-88.19 414,-162.19 414,-162.19 414,-168.19 408,-174.19 402,-174.19 402,-174.19 372,-174.19 372,-174.19 366,-174.19 360,-168.19 360,-162.19 360,-162.19 360,-88.19 360,-88.19 360,-82.19 366,-76.19 372,-76.19"/>
<text xml:space="preserve" text-anchor="middle" x="387" y="-156.89" font-family="Times,serif" font-size="14.00">pos: 4</text>
<polyline fill="none" stroke="black" points="360,-149.69 414,-149.69"/>
<text xml:space="preserve" text-anchor="middle" x="387" y="-132.39" font-family="Times,serif" font-size="14.00">2</text>
<polyline fill="none" stroke="black" points="360,-125.19 414,-125.19"/>
<text xml:space="preserve" text-anchor="middle" x="387" y="-107.89" font-family="Times,serif" font-size="14.00">40</text>
<polyline fill="none" stroke="black" points="360,-100.69 414,-100.69"/>
<text xml:space="preserve" text-anchor="middle" x="387" y="-83.39" font-family="Times,serif" font-size="14.00">6</text>
</g>
<!-- element2&#45;&gt;element4 -->
<g id="edge10" class="edge">
<title>element2&#45;&gt;element4</title>
<path fill="none" stroke="#ff0000" d="M234.35,-83.75C244.33,-73.24 256.56,-63.5 270,-58.19 292.32,-49.38 301.68,-49.38 324,-58.19 333.97,-62.13 343.28,-68.51 351.5,-75.84"/>
<polygon fill="#ff0000" stroke="#ff0000" points="348.96,-78.25 358.57,-82.7 353.83,-73.22 348.96,-78.25"/>
</g>
<!-- element3&#45;&gt;element4 -->
<!-- element4&#45;&gt;element2 -->
<g id="edge11" class="edge">
<title>element4&#45;&gt;element2</title>
<path fill="none" stroke="#0000ff" d="M359.65,-100.74C349.67,-91.24 337.44,-81.5 324,-76.19 301.68,-67.38 292.32,-67.38 270,-76.19 260.13,-80.09 250.91,-86.38 242.76,-93.21"/>
<polygon fill="#0000ff" stroke="#0000ff" points="240.59,-90.45 235.47,-99.73 245.26,-95.67 240.59,-90.45"/>
</g>
<!-- element5 -->
<g id="node6" class="node">
<title>element5</title>
<path fill="lightgrey" stroke="black" d="M462,-76.19C462,-76.19 492,-76.19 492,-76.19 498,-76.19 504,-82.19 504,-88.19 504,-88.19 504,-162.19 504,-162.19 504,-168.19 498,-174.19 492,-174.19 492,-174.19 462,-174.19 462,-174.19 456,-174.19 450,-168.19 450,-162.19 450,-162.19 450,-88.19 450,-88.19 450,-82.19 456,-76.19 462,-76.19"/>
<text xml:space="preserve" text-anchor="middle" x="477" y="-156.89" font-family="Times,serif" font-size="14.00">pos: 5</text>
<polyline fill="none" stroke="black" points="450,-149.69 504,-149.69"/>
<text xml:space="preserve" text-anchor="middle" x="477" y="-132.39" font-family="Times,serif" font-size="14.00">&#45;1</text>
<polyline fill="none" stroke="black" points="450,-125.19 504,-125.19"/>
<text xml:space="preserve" text-anchor="middle" x="477" y="-107.89" font-family="Times,serif" font-size="14.00">&#45;1</text>
<polyline fill="none" stroke="black" points="450,-100.69 504,-100.69"/>
<text xml:space="preserve" text-anchor="middle" x="477" y="-83.39" font-family="Times,serif" font-size="14.00">&#45;1</text>
</g>
<!-- element4&#45;&gt;element5 -->
<!-- element6 -->
<g id="node7" class="node">
<title>element6</title>
<path fill="lightgrey" stroke="black" d="M552,-76.19C552,-76.19 582,-76.19 582,-76.19 588,-76.19 594,-82.19 594,-88.19 594,-88.19 594,-162.19 594,-162.19 594,-168.19 588,-174.19 582,-174.19 582,-174.19 552,-174.19 552,-174.19 546,-174.19 540,-168.19 540,-162.19 540,-162.19 540,-88.19 540,-88.19 540,-82.19 546,-76.19 552,-76.19"/>
<text xml:space="preserve" text-anchor="middle" x="567" y="-156.89" font-family="Times,serif" font-size="14.00">pos: 6</text>
<polyline fill="none" stroke="black" points="540,-149.69 594,-149.69"/>
<text xml:space="preserve" text-anchor="middle" x="567" y="-132.39" font-family="Times,serif" font-size="14.00">4</text>
<polyline fill="none" stroke="black" points="540,-125.19 594,-125.19"/>
<text xml:space="preserve" text-anchor="middle" x="567" y="-107.89" font-family="Times,serif" font-size="14.00">60</text>
<polyline fill="none" stroke="black" points="540,-100.69 594,-100.69"/>
<text xml:space="preserve" text-anchor="middle" x="567" y="-83.39" font-family="Times,serif" font-size="14.00">0</text>
</g>
<!-- element4&#45;&gt;element6 -->
<g id="edge12" class="edge">
<title>element4&#45;&gt;element6</title>
<path fill="none" stroke="#ff0000" d="M414.35,-83.75C424.33,-73.24 436.56,-63.5 450,-58.19 472.32,-49.38 481.68,-49.38 504,-58.19 513.97,-62.13 523.28,-68.51 531.5,-75.84"/>
<polygon fill="#ff0000" stroke="#ff0000" points="528.96,-78.25 538.57,-82.7 533.83,-73.22 528.96,-78.25"/>
</g>
<!-- element5&#45;&gt;element6 -->
<!-- element6&#45;&gt;element0 -->
<g id="edge14" class="edge">
<title>element6&#45;&gt;element0</title>
<path fill="none" stroke="#ff0000" d="M539.55,-84.68C529.86,-73.3 517.83,-62.36 504,-56.19 335.95,18.73 258.05,18.73 90,-56.19 79.63,-60.82 70.27,-68.13 62.15,-76.29"/>
<polygon fill="#ff0000" stroke="#ff0000" points="59.66,-73.83 55.47,-83.56 64.82,-78.56 59.66,-73.83"/>
</g>
<!-- element6&#45;&gt;element4 -->
<g id="edge13" class="edge">
<title>element6&#45;&gt;element4</title>
<path fill="none" stroke="#0000ff" d="M539.65,-100.74C529.67,-91.24 517.44,-81.5 504,-76.19 481.68,-67.38 472.32,-67.38 450,-76.19 440.13,-80.09 430.91,-86.38 422.76,-93.21"/>
<polygon fill="#0000ff" stroke="#0000ff" points="420.59,-90.45 415.47,-99.73 425.26,-95.67 420.59,-90.45"/>
</g>
<!-- element7 -->
<g id="node8" class="node">
<title>element7</title>
<path fill="lightgrey" stroke="black" d="M642,-76.19C642,-76.19 672,-76.19 672,-76.19 678,-76.19 684,-82.19 684,-88.19 684,-88.19 684,-162.19 684,-162.19 684,-168.19 678,-174.19 672,-174.19 672,-174.19 642,-174.19 642,-174.19 636,-174.19 630,-168.19 630,-162.19 630,-162.19 630,-88.19 630,-88.19 630,-82.19 636,-76.19 642,-76.19"/>
<text xml:space="preserve" text-anchor="middle" x="657" y="-156.89" font-family="Times,serif" font-size="14.00">pos: 7</text>
<polyline fill="none" stroke="black" points="630,-149.69 684,-149.69"/>
<text xml:space="preserve" text-anchor="middle" x="657" y="-132.39" font-family="Times,serif" font-size="14.00">&#45;1</text>
<polyline fill="none" stroke="black" points="630,-125.19 684,-125.19"/>
<text xml:space="preserve" text-anchor="middle" x="657" y="-107.89" font-family="Times,serif" font-size="14.00">&#45;1</text>
<polyline fill="none" stroke="black" points="630,-100.69 684,-100.69"/>
<text xml:space="preserve" text-anchor="middle" x="657" y="-83.39" font-family="Times,serif" font-size="14.00">&#45;1</text>
</g>
<!-- element6&#45;&gt;element7 -->
<!-- element8 -->
<g id="node9" class="node">
<title>element8</title>
<path fill="lightgrey" stroke="black" d="M732,-76.19C732,-76.19 762,-76.19 762,-76.19 768,-76.19 774,-82.19 774,-88.19 774,-88.19 774,-162.19 774,-162.19 774,-168.19 768,-174.19 762,-174.19 762,-174.19 732,-174.19 732,-174.19 726,-174.19 720,-168.19 720,-162.19 720,-162.19 720,-88.19 720,-88.19 720,-82.19 726,-76.19 732,-76.19"/>
<text xml:space="preserve" text-anchor="middle" x="747" y="-156.89" font-family="Times,serif" font-size="14.00">pos: 8</text>
<polyline fill="none" stroke="black" points="720,-149.69 774,-149.69"/>
<text xml:space="preserve" text-anchor="middle" x="747" y="-132.39" font-family="Times,serif" font-size="14.00">&#45;1</text>
<polyline fill="none" stroke="black" points="720,-125.19 774,-125.19"/>
<text xml:space="preserve" text-anchor="middle" x="747" y="-107.89" font-family="Times,serif" font-size="14.00">&#45;1</text>
<polyline fill="none" stroke="black" points="720,-100.69 774,-100.69"/>
<text xml:space="preserve" text-anchor="middle" x="747" y="-83.39" font-family="Times,serif" font-size="14.00">&#45;1</text>
</g>
<!-- element7&#45;&gt;element8 -->
</g>
</svg>
