<?xml version="1.0" encoding="UTF-8" standalone="no"?>
<!DOCTYPE svg PUBLIC "-//W3C//DTD SVG 1.1//EN"
 "http://www.w3.org/Graphics/SVG/1.1/DTD/svg11.dtd">
<!-- Generated by graphviz version 14.0.2 (20251019.1705)
 -->
<!-- Title: G Pages: 1 -->
<svg width="242pt" height="122pt"
 viewBox="0.00 0.00 242.00 122.00" xmlns="http://www.w3.org/2000/svg" xmlns:xlink="http://www.w3.org/1999/xlink">
<g id="graph0" class="graph" transform="scale(1 1) rotate(0) translate(4 118.11)">
<title>G</title>
<polygon fill="white" stroke="none" points="-4,4 -4,-118.11 238,-118.11 238,4 -4,4"/>
<!-- element0 -->
<g id="node1" class="node">
<title>element0</title>
<path fill="lightgrey" stroke="black" d="M12,-15.61C12,-15.61 42,-15.61 42,-15.61 48,-15.61 54,-21.61 54,-27.61 54,-27.61 54,-101.61 54,-101.61 54,-107.61 48,-113.61 42,-113.61 42,-113.61 12,-113.61 12,-113.61 6,-113.61 0,-107.61 0,-101.61 0,-101.61 0,-27.61 0,-27.61 0,-21.61 6,-15.61 12,-15.61"/>
<text xml:space="preserve" text-anchor="middle" x="27" y="-96.31" font-family="Times,serif" font-size="14.00">pos: 0</text>
<polyline fill="none" stroke="black" points="0,-89.11 54,-89.11"/>
<text xml:space="preserve" text-anchor="middle" x="27" y="-71.81" font-family="Times,serif" font-size="14.00">0</text>
<polyline fill="none" stroke="black" points="0,-64.61 54,-64.61"/>
<text xml:space="preserve" text-anchor="middle" x="27" y="-47.31" font-family="Times,serif" font-size="14.00">&#45;1</text>
<polyline fill="none" stroke="black" points="0,-40.11 54,-40.11"/>
<text xml:space="preserve" text-anchor="middle" x="27" y="-22.81" font-family="Times,serif" font-size="14.00">0</text>
</g>
<!-- element1 -->
<g id="node2" class="node">
<title>element1</title>
<path fill="lightgrey" stroke="black" d="M102,-15.61C102,-15.61 132,-15.61 132,-15.61 138,-15.61 144,-21.61 144,-27.61 144,-27.61 144,-101.61 144,-101.61 144,-107.61 138,-113.61 132,-113.61 132,-113.61 102,-113.61 102,-113.61 96,-113.61 90,-107.61 90,-101.61 90,-101.61 90,-27.61 90,-27.61 90,-21.61 96,-15.61 102,-15.61"/>
<text xml:space="preserve" text-anchor="middle" x="117" y="-96.31" font-family="Times,serif" font-size="14.00">pos: 1</text>
<polyline fill="none" stroke="black" points="90,-89.11 144,-89.11"/>
<text xml:space="preserve" text-anchor="middle" x="117" y="-71.81" font-family="Times,serif" font-size="14.00">0</text>
<polyline fill="none" stroke="black" points="90,-64.61 144,-64.61"/>
<text xml:space="preserve" text-anchor="middle" x="117" y="-47.31" font-family="Times,serif" font-size="14.00">10</text>
<polyline fill="none" stroke="black" points="90,-40.11 144,-40.11"/>
<text xml:space="preserve" text-anchor="middle" x="117" y="-22.81" font-family="Times,serif" font-size="14.00">2</text>
</g>
<!-- element0&#45;&gt;element1 -->
<!-- element1&#45;&gt;element0 -->
<g id="edge3" class="edge">
<title>element1&#45;&gt;element0</title>
<path fill="none" stroke="#0000ff" d="M89.62,-70.85C82.13,-71.31 73.84,-71.46 65.82,-71.3"/>
<polygon fill="#0000ff" stroke="#0000ff" points="66.04,-67.81 55.92,-70.91 65.77,-74.8 66.04,-67.81"/>
</g>
<!-- element2 -->
<g id="node3" class="node">
<title>element2</title>
<path fill="lightgrey" stroke="black" d="M192,-15.61C192,-15.61 222,-15.61 222,-15.61 228,-15.61 234,-21.61 234,-27.61 234,-27.61 234,-101.61 234,-101.61 234,-107.61 228,-113.61 222,-113.61 222,-113.61 192,-113.61 192,-113.61 186,-113.61 180,-107.61 180,-101.61 180,-101.61 180,-27.61 180,-27.61 180,-21.61 186,-15.61 192,-15.61"/>
<text xml:space="preserve" text-anchor="middle" x="207" y="-96.31" font-family="Times,serif" font-size="14.00">pos: 2</text>
<polyline fill="none" stroke="black" points="180,-89.11 234,-89.11"/>
<text xml:space="preserve" text-anchor="middle" x="207" y="-71.81" font-family="Times,serif" font-size="14.00">1</text>
<polyline fill="none" stroke="black" points="180,-64.61 234,-64.61"/>
<text xml:space="preserve" text-anchor="middle" x="207" y="-47.31" font-family="Times,serif" font-size="14.00">20</text>
<polyline fill="none" stroke="black" points="180,-40.11 234,-40.11"/>
<text xml:space="preserve" text-anchor="middle" x="207" y="-22.81" font-family="Times,serif" font-size="14.00">0</text>
</g>
<!-- element1&#45;&gt;element2 -->
<!-- element1&#45;&gt;element2 -->
<g id="edge4" class="edge">
<title>element1&#45;&gt;element2</title>
<path fill="none" stroke="#ff0000" d="M144.4,-64.61C151.89,-64.61 160.18,-64.61 168.2,-64.61"/>
<polygon fill="#ff0000" stroke="#ff0000" points="168.1,-68.11 178.1,-64.61 168.1,-61.11 168.1,-68.11"/>
</g>
<!-- element2&#45;&gt;element0 -->
<g id="edge6" class="edge">
<title>element2&#45;&gt;element0</title>
<path fill="none" stroke="#ff0000" d="M179.65,-31.66C169.67,-21.66 157.44,-11.91 144,-6.61 121.68,2.2 112.32,2.2 90,-6.61 80.13,-10.51 70.91,-16.8 62.76,-23.82"/>
<polygon fill="#ff0000" stroke="#ff0000" points="60.38,-21.25 55.45,-30.63 65.15,-26.38 60.38,-21.25"/>
</g>
<!-- element2&#45;&gt;element1 -->
<g id="edge5" class="edge">
<title>element2&#45;&gt;element1</title>
<path fill="none" stroke="#0000ff" d="M179.62,-77.1C172.13,-78 163.84,-78.3 155.82,-77.99"/>
<polygon fill="#0000ff" stroke="#0000ff" points="156.15,-74.51 145.91,-77.22 155.61,-81.49 156.15,-74.51"/>
</g>
</g>
</svg>
