<?xml version="1.0" encoding="UTF-8" standalone="no"?>
<!DOCTYPE svg PUBLIC "-//W3C//DTD SVG 1.1//EN"
 "http://www.w3.org/Graphics/SVG/1.1/DTD/svg11.dtd">
<!-- Generated by graphviz version 14.0.2 (20251019.1705)
 -->
<!-- Title: G Pages: 1 -->
<svg width="422pt" height="133pt"
 viewBox="0.00 0.00 422.00 133.00" xmlns="http://www.w3.org/2000/svg" xmlns:xlink="http://www.w3.org/1999/xlink">
<g id="graph0" class="graph" transform="scale(1 1) rotate(0) translate(4 129.13)">
<title>G</title>
<polygon fill="white" stroke="none" points="-4,4 -4,-129.13 418,-129.13 418,4 -4,4"/>
<!-- element0 -->
<g id="node1" class="node">
<title>element0</title>
<path fill="lightgrey" stroke="black" d="M12,-26.63C12,-26.63 42,-26.63 42,-26.63 48,-26.63 54,-32.63 54,-38.63 54,-38.63 54,-112.63 54,-112.63 54,-118.63 48,-124.63 42,-124.63 42,-124.63 12,-124.63 12,-124.63 6,-124.63 0,-118.63 0,-112.63 0,-112.63 0,-38.63 0,-38.63 0,-32.63 6,-26.63 12,-26.63"/>
<text xml:space="preserve" text-anchor="middle" x="27" y="-107.33" font-family="Times,serif" font-size="14.00">pos: 0</text>
<polyline fill="none" stroke="black" points="0,-100.13 54,-100.13"/>
<text xml:space="preserve" text-anchor="middle" x="27" y="-82.83" font-family="Times,serif" font-size="14.00">0</text>
<polyline fill="none" stroke="black" points="0,-75.63 54,-75.63"/>
<text xml:space="preserve" text-anchor="middle" x="27" y="-58.33" font-family="Times,serif" font-size="14.00">&#45;1</text>
<polyline fill="none" stroke="black" points="0,-51.13 54,-51.13"/>
<text xml:space="preserve" text-anchor="middle" x="27" y="-33.83" font-family="Times,serif" font-size="14.00">0</text>
</g>
<!-- element1 -->
<g id="node2" class="node">
<title>element1</title>
<path fill="lightgrey" stroke="black" d="M102,-26.63C102,-26.63 132,-26.63 132,-26.63 138,-26.63 144,-32.63 144,-38.63 144,-38.63 144,-112.63 144,-112.63 144,-118.63 138,-124.63 132,-124.63 132,-124.63 102,-124.63 102,-124.63 96,-124.63 90,-118.63 90,-112.63 90,-112.63 90,-38.63 90,-38.63 90,-32.63 96,-26.63 102,-26.63"/>
<text xml:space="preserve" text-anchor="middle" x="117" y="-107.33" font-family="Times,serif" font-size="14.00">pos: 1</text>
<polyline fill="none" stroke="black" points="90,-100.13 144,-100.13"/>
<text xml:space="preserve" text-anchor="middle" x="117" y="-82.83" font-family="Times,serif" font-size="14.00">0</text>
<polyline fill="none" stroke="black" points="90,-75.63 144,-75.63"/>
<text xml:space="preserve" text-anchor="middle" x="117" y="-58.33" font-family="Times,serif" font-size="14.00">10</text>
<polyline fill="none" stroke="black" points="90,-51.13 144,-51.13"/>
<text xml:space="preserve" text-anchor="middle" x="117" y="-33.83" font-family="Times,serif" font-size="14.00">2</text>
</g>
<!-- element0&#45;&gt;element1 -->
<!-- element1&#45;&gt;element0 -->
<g id="edge5" class="edge">
<title>element1&#45;&gt;element0</title>
<path fill="none" stroke="#0000ff" d="M89.62,-81.87C82.13,-82.32 73.84,-82.47 65.82,-82.32"/>
<polygon fill="#0000ff" stroke="#0000ff" points="66.04,-78.82 55.92,-81.93 65.77,-85.82 66.04,-78.82"/>
</g>
<!-- element2 -->
<g id="node3" class="node">
<title>element2</title>
<path fill="lightgrey" stroke="black" d="M192,-26.63C192,-26.63 222,-26.63 222,-26.63 228,-26.63 234,-32.63 234,-38.63 234,-38.63 234,-112.63 234,-112.63 234,-118.63 228,-124.63 222,-124.63 222,-124.63 192,-124.63 192,-124.63 186,-124.63 180,-118.63 180,-112.63 180,-112.63 180,-38.63 180,-38.63 180,-32.63 186,-26.63 192,-26.63"/>
<text xml:space="preserve" text-anchor="middle" x="207" y="-107.33" font-family="Times,serif" font-size="14.00">pos: 2</text>
<polyline fill="none" stroke="black" points="180,-100.13 234,-100.13"/>
<text xml:space="preserve" text-anchor="middle" x="207" y="-82.83" font-family="Times,serif" font-size="14.00">1</text>
<polyline fill="none" stroke="black" points="180,-75.63 234,-75.63"/>
<text xml:space="preserve" text-anchor="middle" x="207" y="-58.33" font-family="Times,serif" font-size="14.00">20</text>
<polyline fill="none" stroke="black" points="180,-51.13 234,-51.13"/>
<text xml:space="preserve" text-anchor="middle" x="207" y="-33.83" font-family="Times,serif" font-size="14.00">3</text>
</g>
<!-- element1&#45;&gt;element2 -->
<!-- element1&#45;&gt;element2 -->
<g id="edge6" class="edge">
<title>element1&#45;&gt;element2</title>
<path fill="none" stroke="#ff0000" d="M144.4,-75.63C151.89,-75.63 160.18,-75.63 168.2,-75.63"/>
<polygon fill="#ff0000" stroke="#ff0000" points="168.1,-79.13 178.1,-75.63 168.1,-72.13 168.1,-79.13"/>
</g>
<!-- element2&#45;&gt;element1 -->
<g id="edge7" class="edge">
<title>element2&#45;&gt;element1</title>
<path fill="none" stroke="#0000ff" d="M179.62,-88.12C172.13,-89.02 163.84,-89.32 155.82,-89.01"/>
<polygon fill="#0000ff" stroke="#0000ff" points="156.15,-85.52 145.91,-88.24 155.61,-92.5 156.15,-85.52"/>
</g>
<!-- element3 -->
<g id="node4" class="node">
<title>element3</title>
<path fill="lightgrey" stroke="black" d="M282,-26.63C282,-26.63 312,-26.63 312,-26.63 318,-26.63 324,-32.63 324,-38.63 324,-38.63 324,-112.63 324,-112.63 324,-118.63 318,-124.63 312,-124.63 312,-124.63 282,-124.63 282,-124.63 276,-124.63 270,-118.63 270,-112.63 270,-112.63 270,-38.63 270,-38.63 270,-32.63 276,-26.63 282,-26.63"/>
<text xml:space="preserve" text-anchor="middle" x="297" y="-107.33" font-family="Times,serif" font-size="14.00">pos: 3</text>
<polyline fill="none" stroke="black" points="270,-100.13 324,-100.13"/>
<text xml:space="preserve" text-anchor="middle" x="297" y="-82.83" font-family="Times,serif" font-size="14.00">2</text>
<polyline fill="none" stroke="black" points="270,-75.63 324,-75.63"/>
<text xml:space="preserve" text-anchor="middle" x="297" y="-58.33" font-family="Times,serif" font-size="14.00">30</text>
<polyline fill="none" stroke="black" points="270,-51.13 324,-51.13"/>
<text xml:space="preserve" text-anchor="middle" x="297" y="-33.83" font-family="Times,serif" font-size="14.00">0</text>
</g>
<!-- element2&#45;&gt;element3 -->
<!-- element2&#45;&gt;element3 -->
<g id="edge8" class="edge">
<title>element2&#45;&gt;element3</title>
<path fill="none" stroke="#ff0000" d="M234.4,-75.63C241.89,-75.63 250.18,-75.63 258.2,-75.63"/>
<polygon fill="#ff0000" stroke="#ff0000" points="258.1,-79.13 268.1,-75.63 258.1,-72.13 258.1,-79.13"/>
</g>
<!-- element3&#45;&gt;element0 -->
<g id="edge10" class="edge">
<title>element3&#45;&gt;element0</title>
<path fill="none" stroke="#ff0000" d="M269.65,-42.68C259.67,-32.68 247.44,-22.93 234,-17.63 174.47,5.88 149.53,5.88 90,-17.63 80.13,-21.52 70.91,-27.81 62.76,-34.84"/>
<polygon fill="#ff0000" stroke="#ff0000" points="60.38,-32.27 55.45,-41.65 65.15,-37.39 60.38,-32.27"/>
</g>
<!-- element3&#45;&gt;element2 -->
<g id="edge9" class="edge">
<title>element3&#45;&gt;element2</title>
<path fill="none" stroke="#0000ff" d="M269.62,-88.12C262.13,-89.02 253.84,-89.32 245.82,-89.01"/>
<polygon fill="#0000ff" stroke="#0000ff" points="246.15,-85.52 235.91,-88.24 245.61,-92.5 246.15,-85.52"/>
</g>
<!-- element4 -->
<g id="node5" class="node">
<title>element4</title>
<path fill="lightgrey" stroke="black" d="M372,-26.63C372,-26.63 402,-26.63 402,-26.63 408,-26.63 414,-32.63 414,-38.63 414,-38.63 414,-112.63 414,-112.63 414,-118.63 408,-124.63 402,-124.63 402,-124.63 372,-124.63 372,-124.63 366,-124.63 360,-118.63 360,-112.63 360,-112.63 360,-38.63 360,-38.63 360,-32.63 366,-26.63 372,-26.63"/>
<text xml:space="preserve" text-anchor="middle" x="387" y="-107.33" font-family="Times,serif" font-size="14.00">pos: 4</text>
<polyline fill="none" stroke="black" points="360,-100.13 414,-100.13"/>
<text xml:space="preserve" text-anchor="middle" x="387" y="-82.83" font-family="Times,serif" font-size="14.00">&#45;1</text>
<polyline fill="none" stroke="black" points="360,-75.63 414,-75.63"/>
<text xml:space="preserve" text-anchor="middle" x="387" y="-58.33" font-family="Times,serif" font-size="14.00">&#45;1</text>
<polyline fill="none" stroke="black" points="360,-51.13 414,-51.13"/>
<text xml:space="preserve" text-anchor="middle" x="387" y="-33.83" font-family="Times,serif" font-size="14.00">&#45;1</text>
</g>
<!-- element3&#45;&gt;element4 -->
</g>
</svg>
