<?xml version="1.0" encoding="UTF-8" standalone="no"?>
<!DOCTYPE svg PUBLIC "-//W3C//DTD SVG 1.1//EN"
 "http://www.w3.org/Graphics/SVG/1.1/DTD/svg11.dtd">
<!-- Generated by graphviz version 14.0.2 (20251019.1705)
 -->
<!-- Title: G Pages: 1 -->
<svg width="782pt" height="136pt"
 viewBox="0.00 0.00 782.00 136.00" xmlns="http://www.w3.org/2000/svg" xmlns:xlink="http://www.w3.org/1999/xlink">
<g id="graph0" class="graph" transform="scale(1 1) rotate(0) translate(4 132.32)">
<title>G</title>
<polygon fill="white" stroke="none" points="-4,4 -4,-132.32 778,-132.32 778,4 -4,4"/>
<!-- element0 -->
<g id="node1" class="node">
<title>element0</title>
<path fill="lightgrey" stroke="black" d="M12,-29.82C12,-29.82 42,-29.82 42,-29.82 48,-29.82 54,-35.82 54,-41.82 54,-41.82 54,-115.82 54,-115.82 54,-121.82 48,-127.82 42,-127.82 42,-127.82 12,-127.82 12,-127.82 6,-127.82 0,-121.82 0,-115.82 0,-115.82 0,-41.82 0,-41.82 0,-35.82 6,-29.82 12,-29.82"/>
<text xml:space="preserve" text-anchor="middle" x="27" y="-110.52" font-family="Times,serif" font-size="14.00">pos: 0</text>
<polyline fill="none" stroke="black" points="0,-103.32 54,-103.32"/>
<text xml:space="preserve" text-anchor="middle" x="27" y="-86.02" font-family="Times,serif" font-size="14.00">0</text>
<polyline fill="none" stroke="black" points="0,-78.82 54,-78.82"/>
<text xml:space="preserve" text-anchor="middle" x="27" y="-61.52" font-family="Times,serif" font-size="14.00">&#45;1</text>
<polyline fill="none" stroke="black" points="0,-54.32 54,-54.32"/>
<text xml:space="preserve" text-anchor="middle" x="27" y="-37.02" font-family="Times,serif" font-size="14.00">0</text>
</g>
<!-- element1 -->
<g id="node2" class="node">
<title>element1</title>
<path fill="lightgrey" stroke="black" d="M102,-29.82C102,-29.82 132,-29.82 132,-29.82 138,-29.82 144,-35.82 144,-41.82 144,-41.82 144,-115.82 144,-115.82 144,-121.82 138,-127.82 132,-127.82 132,-127.82 102,-127.82 102,-127.82 96,-127.82 90,-121.82 90,-115.82 90,-115.82 90,-41.82 90,-41.82 90,-35.82 96,-29.82 102,-29.82"/>
<text xml:space="preserve" text-anchor="middle" x="117" y="-110.52" font-family="Times,serif" font-size="14.00">pos: 1</text>
<polyline fill="none" stroke="black" points="90,-103.32 144,-103.32"/>
<text xml:space="preserve" text-anchor="middle" x="117" y="-86.02" font-family="Times,serif" font-size="14.00">0</text>
<polyline fill="none" stroke="black" points="90,-78.82 144,-78.82"/>
<text xml:space="preserve" text-anchor="middle" x="117" y="-61.52" font-family="Times,serif" font-size="14.00">10</text>
<polyline fill="none" stroke="black" points="90,-54.32 144,-54.32"/>
<text xml:space="preserve" text-anchor="middle" x="117" y="-37.02" font-family="Times,serif" font-size="14.00">2</text>
</g>
<!-- element0&#45;&gt;element1 -->
<!-- element1&#45;&gt;element0 -->
<g id="edge9" class="edge">
<title>element1&#45;&gt;element0</title>
<path fill="none" stroke="#0000ff" d="M89.62,-85.07C82.13,-85.52 73.84,-85.67 65.82,-85.51"/>
<polygon fill="#0000ff" stroke="#0000ff" points="66.04,-82.02 55.92,-85.13 65.77,-89.01 66.04,-82.02"/>
</g>
<!-- element2 -->
<g id="node3" class="node">
<title>element2</title>
<path fill="lightgrey" stroke="black" d="M192,-29.82C192,-29.82 222,-29.82 222,-29.82 228,-29.82 234,-35.82 234,-41.82 234,-41.82 234,-115.82 234,-115.82 234,-121.82 228,-127.82 222,-127.82 222,-127.82 192,-127.82 192,-127.82 186,-127.82 180,-121.82 180,-115.82 180,-115.82 180,-41.82 180,-41.82 180,-35.82 186,-29.82 192,-29.82"/>
<text xml:space="preserve" text-anchor="middle" x="207" y="-110.52" font-family="Times,serif" font-size="14.00">pos: 2</text>
<polyline fill="none" stroke="black" points="180,-103.32 234,-103.32"/>
<text xml:space="preserve" text-anchor="middle" x="207" y="-86.02" font-family="Times,serif" font-size="14.00">1</text>
<polyline fill="none" stroke="black" points="180,-78.82 234,-78.82"/>
<text xml:space="preserve" text-anchor="middle" x="207" y="-61.52" font-family="Times,serif" font-size="14.00">20</text>
<polyline fill="none" stroke="black" points="180,-54.32 234,-54.32"/>
<text xml:space="preserve" text-anchor="middle" x="207" y="-37.02" font-family="Times,serif" font-size="14.00">3</text>
</g>
<!-- element1&#45;&gt;element2 -->
<!-- element1&#45;&gt;element2 -->
<g id="edge10" class="edge">
<title>element1&#45;&gt;element2</title>
<path fill="none" stroke="#ff0000" d="M144.4,-78.82C151.89,-78.82 160.18,-78.82 168.2,-78.82"/>
<polygon fill="#ff0000" stroke="#ff0000" points="168.1,-82.32 178.1,-78.82 168.1,-75.32 168.1,-82.32"/>
</g>
<!-- element2&#45;&gt;element1 -->
<g id="edge11" class="edge">
<title>element2&#45;&gt;element1</title>
<path fill="none" stroke="#0000ff" d="M179.62,-91.31C172.13,-92.22 163.84,-92.51 155.82,-92.2"/>
<polygon fill="#0000ff" stroke="#0000ff" points="156.15,-88.72 145.91,-91.43 155.61,-95.7 156.15,-88.72"/>
</g>
<!-- element3 -->
<g id="node4" class="node">
<title>element3</title>
<path fill="lightgrey" stroke="black" d="M282,-29.82C282,-29.82 312,-29.82 312,-29.82 318,-29.82 324,-35.82 324,-41.82 324,-41.82 324,-115.82 324,-115.82 324,-121.82 318,-127.82 312,-127.82 312,-127.82 282,-127.82 282,-127.82 276,-127.82 270,-121.82 270,-115.82 270,-115.82 270,-41.82 270,-41.82 270,-35.82 276,-29.82 282,-29.82"/>
<text xml:space="preserve" text-anchor="middle" x="297" y="-110.52" font-family="Times,serif" font-size="14.00">pos: 3</text>
<polyline fill="none" stroke="black" points="270,-103.32 324,-103.32"/>
<text xml:space="preserve" text-anchor="middle" x="297" y="-86.02" font-family="Times,serif" font-size="14.00">2</text>
<polyline fill="none" stroke="black" points="270,-78.82 324,-78.82"/>
<text xml:space="preserve" text-anchor="middle" x="297" y="-61.52" font-family="Times,serif" font-size="14.00">30</text>
<polyline fill="none" stroke="black" points="270,-54.32 324,-54.32"/>
<text xml:space="preserve" text-anchor="middle" x="297" y="-37.02" font-family="Times,serif" font-size="14.00">4</text>
</g>
<!-- element2&#45;&gt;element3 -->
<!-- element2&#45;&gt;element3 -->
<g id="edge12" class="edge">
<title>element2&#45;&gt;element3</title>
<path fill="none" stroke="#ff0000" d="M234.4,-78.82C241.89,-78.82 250.18,-78.82 258.2,-78.82"/>
<polygon fill="#ff0000" stroke="#ff0000" points="258.1,-82.32 268.1,-78.82 258.1,-75.32 258.1,-82.32"/>
</g>
<!-- element3&#45;&gt;element2 -->
<g id="edge13" class="edge">
<title>element3&#45;&gt;element2</title>
<path fill="none" stroke="#0000ff" d="M269.62,-91.31C262.13,-92.22 253.84,-92.51 245.82,-92.2"/>
<polygon fill="#0000ff" stroke="#0000ff" points="246.15,-88.72 235.91,-91.43 245.61,-95.7 246.15,-88.72"/>
</g>
<!-- element4 -->
<g id="node5" class="node">
<title>element4</title>
<path fill="lightgrey" stroke="black" d="M372,-29.82C372,-29.82 402,-29.82 402,-29.82 408,-29.82 414,-35.82 414,-41.82 414,-41.82 414,-115.82 414,-115.82 414,-121.82 408,-127.82 402,-127.82 402,-127.82 372,-127.82 372,-127.82 366,-127.82 360,-121.82 360,-115.82 360,-115.82 360,-41.82 360,-41.82 360,-35.82 366,-29.82 372,-29.82"/>
<text xml:space="preserve" text-anchor="middle" x="387" y="-110.52" font-family="Times,serif" font-size="14.00">pos: 4</text>
<polyline fill="none" stroke="black" points="360,-103.32 414,-103.32"/>
<text xml:space="preserve" text-anchor="middle" x="387" y="-86.02" font-family="Times,serif" font-size="14.00">3</text>
<polyline fill="none" stroke="black" points="360,-78.82 414,-78.82"/>
<text xml:space="preserve" text-anchor="middle" x="387" y="-61.52" font-family="Times,serif" font-size="14.00">40</text>
<polyline fill="none" stroke="black" points="360,-54.32 414,-54.32"/>
<text xml:space="preserve" text-anchor="middle" x="387" y="-37.02" font-family="Times,serif" font-size="14.00">5</text>
</g>
<!-- element3&#45;&gt;element4 -->
<!-- element3&#45;&gt;element4 -->
<g id="edge14" class="edge">
<title>element3&#45;&gt;element4</title>
<path fill="none" stroke="#ff0000" d="M324.4,-78.82C331.89,-78.82 340.18,-78.82 348.2,-78.82"/>
<polygon fill="#ff0000" stroke="#ff0000" points="348.1,-82.32 358.1,-78.82 348.1,-75.32 348.1,-82.32"/>
</g>
<!-- element4&#45;&gt;element3 -->
<g id="edge15" class="edge">
<title>element4&#45;&gt;element3</title>
<path fill="none" stroke="#0000ff" d="M359.62,-91.31C352.13,-92.22 343.84,-92.51 335.82,-92.2"/>
<polygon fill="#0000ff" stroke="#0000ff" points="336.15,-88.72 325.91,-91.43 335.61,-95.7 336.15,-88.72"/>
</g>
<!-- element5 -->
<g id="node6" class="node">
<title>element5</title>
<path fill="lightgrey" stroke="black" d="M462,-29.82C462,-29.82 492,-29.82 492,-29.82 498,-29.82 504,-35.82 504,-41.82 504,-41.82 504,-115.82 504,-115.82 504,-121.82 498,-127.82 492,-127.82 492,-127.82 462,-127.82 462,-127.82 456,-127.82 450,-121.82 450,-115.82 450,-115.82 450,-41.82 450,-41.82 450,-35.82 456,-29.82 462,-29.82"/>
<text xml:space="preserve" text-anchor="middle" x="477" y="-110.52" font-family="Times,serif" font-size="14.00">pos: 5</text>
<polyline fill="none" stroke="black" points="450,-103.32 504,-103.32"/>
<text xml:space="preserve" text-anchor="middle" x="477" y="-86.02" font-family="Times,serif" font-size="14.00">4</text>
<polyline fill="none" stroke="black" points="450,-78.82 504,-78.82"/>
<text xml:space="preserve" text-anchor="middle" x="477" y="-61.52" font-family="Times,serif" font-size="14.00">50</text>
<polyline fill="none" stroke="black" points="450,-54.32 504,-54.32"/>
<text xml:space="preserve" text-anchor="middle" x="477" y="-37.02" font-family="Times,serif" font-size="14.00">6</text>
</g>
<!-- element4&#45;&gt;element5 -->
<!-- element4&#45;&gt;element5 -->
<g id="edge16" class="edge">
<title>element4&#45;&gt;element5</title>
<path fill="none" stroke="#ff0000" d="M414.4,-78.82C421.89,-78.82 430.18,-78.82 438.2,-78.82"/>
<polygon fill="#ff0000" stroke="#ff0000" points="438.1,-82.32 448.1,-78.82 438.1,-75.32 438.1,-82.32"/>
</g>
<!-- element5&#45;&gt;element4 -->
<g id="edge17" class="edge">
<title>element5&#45;&gt;element4</title>
<path fill="none" stroke="#0000ff" d="M449.62,-91.31C442.13,-92.22 433.84,-92.51 425.82,-92.2"/>
<polygon fill="#0000ff" stroke="#0000ff" points="426.15,-88.72 415.91,-91.43 425.61,-95.7 426.15,-88.72"/>
</g>
<!-- element6 -->
<g id="node7" class="node">
<title>element6</title>
<path fill="lightgrey" stroke="black" d="M552,-29.82C552,-29.82 582,-29.82 582,-29.82 588,-29.82 594,-35.82 594,-41.82 594,-41.82 594,-115.82 594,-115.82 594,-121.82 588,-127.82 582,-127.82 582,-127.82 552,-127.82 552,-127.82 546,-127.82 540,-121.82 540,-115.82 540,-115.82 540,-41.82 540,-41.82 540,-35.82 546,-29.82 552,-29.82"/>
<text xml:space="preserve" text-anchor="middle" x="567" y="-110.52" font-family="Times,serif" font-size="14.00">pos: 6</text>
<polyline fill="none" stroke="black" points="540,-103.32 594,-103.32"/>
<text xml:space="preserve" text-anchor="middle" x="567" y="-86.02" font-family="Times,serif" font-size="14.00">5</text>
<polyline fill="none" stroke="black" points="540,-78.82 594,-78.82"/>
<text xml:space="preserve" text-anchor="middle" x="567" y="-61.52" font-family="Times,serif" font-size="14.00">60</text>
<polyline fill="none" stroke="black" points="540,-54.32 594,-54.32"/>
<text xml:space="preserve" text-anchor="middle" x="567" y="-37.02" font-family="Times,serif" font-size="14.00">0</text>
</g>
<!-- element5&#45;&gt;element6 -->
<!-- element5&#45;&gt;element6 -->
<g id="edge18" class="edge">
<title>element5&#45;&gt;element6</title>
<path fill="none" stroke="#ff0000" d="M504.4,-78.82C511.89,-78.82 520.18,-78.82 528.2,-78.82"/>
<polygon fill="#ff0000" stroke="#ff0000" points="528.1,-82.32 538.1,-78.82 528.1,-75.32 528.1,-82.32"/>
</g>
<!-- element6&#45;&gt;element0 -->
<g id="edge20" class="edge">
<title>element6&#45;&gt;element0</title>
<path fill="none" stroke="#ff0000" d="M539.69,-47.77C529.55,-37.67 517.2,-27.39 504,-20.82 457.15,2.47 440.32,-0.82 388,-0.82 206,-0.82 206,-0.82 206,-0.82 153.68,-0.82 136.85,2.47 90,-20.82 80.2,-25.69 70.88,-32.61 62.57,-39.99"/>
<polygon fill="#ff0000" stroke="#ff0000" points="60.29,-37.33 55.41,-46.73 65.09,-42.42 60.29,-37.33"/>
</g>
<!-- element6&#45;&gt;element5 -->
<g id="edge19" class="edge">
<title>element6&#45;&gt;element5</title>
<path fill="none" stroke="#0000ff" d="M539.62,-91.31C532.13,-92.22 523.84,-92.51 515.82,-92.2"/>
<polygon fill="#0000ff" stroke="#0000ff" points="516.15,-88.72 505.91,-91.43 515.61,-95.7 516.15,-88.72"/>
</g>
<!-- element7 -->
<g id="node8" class="node">
<title>element7</title>
<path fill="lightgrey" stroke="black" d="M642,-29.82C642,-29.82 672,-29.82 672,-29.82 678,-29.82 684,-35.82 684,-41.82 684,-41.82 684,-115.82 684,-115.82 684,-121.82 678,-127.82 672,-127.82 672,-127.82 642,-127.82 642,-127.82 636,-127.82 630,-121.82 630,-115.82 630,-115.82 630,-41.82 630,-41.82 630,-35.82 636,-29.82 642,-29.82"/>
<text xml:space="preserve" text-anchor="middle" x="657" y="-110.52" font-family="Times,serif" font-size="14.00">pos: 7</text>
<polyline fill="none" stroke="black" points="630,-103.32 684,-103.32"/>
<text xml:space="preserve" text-anchor="middle" x="657" y="-86.02" font-family="Times,serif" font-size="14.00">&#45;1</text>
<polyline fill="none" stroke="black" points="630,-78.82 684,-78.82"/>
<text xml:space="preserve" text-anchor="middle" x="657" y="-61.52" font-family="Times,serif" font-size="14.00">&#45;1</text>
<polyline fill="none" stroke="black" points="630,-54.32 684,-54.32"/>
<text xml:space="preserve" text-anchor="middle" x="657" y="-37.02" font-family="Times,serif" font-size="14.00">&#45;1</text>
</g>
<!-- element6&#45;&gt;element7 -->
<!-- element8 -->
<g id="node9" class="node">
<title>element8</title>
<path fill="lightgrey" stroke="black" d="M732,-29.82C732,-29.82 762,-29.82 762,-29.82 768,-29.82 774,-35.82 774,-41.82 774,-41.82 774,-115.82 774,-115.82 774,-121.82 768,-127.82 762,-127.82 762,-127.82 732,-127.82 732,-127.82 726,-127.82 720,-121.82 720,-115.82 720,-115.82 720,-41.82 720,-41.82 720,-35.82 726,-29.82 732,-29.82"/>
<text xml:space="preserve" text-anchor="middle" x="747" y="-110.52" font-family="Times,serif" font-size="14.00">pos: 8</text>
<polyline fill="none" stroke="black" points="720,-103.32 774,-103.32"/>
<text xml:space="preserve" text-anchor="middle" x="747" y="-86.02" font-family="Times,serif" font-size="14.00">&#45;1</text>
<polyline fill="none" stroke="black" points="720,-78.82 774,-78.82"/>
<text xml:space="preserve" text-anchor="middle" x="747" y="-61.52" font-family="Times,serif" font-size="14.00">&#45;1</text>
<polyline fill="none" stroke="black" points="720,-54.32 774,-54.32"/>
<text xml:space="preserve" text-anchor="middle" x="747" y="-37.02" font-family="Times,serif" font-size="14.00">&#45;1</text>
</g>
<!-- element7&#45;&gt;element8 -->
</g>
</svg>
