<?xml version="1.0" encoding="UTF-8" standalone="no"?>
<!DOCTYPE svg PUBLIC "-//W3C//DTD SVG 1.1//EN"
 "http://www.w3.org/Graphics/SVG/1.1/DTD/svg11.dtd">
<!-- Generated by graphviz version 14.0.2 (20251019.1705)
 -->
<!-- Title: G Pages: 1 -->
<svg width="422pt" height="144pt"
 viewBox="0.00 0.00 422.00 144.00" xmlns="http://www.w3.org/2000/svg" xmlns:xlink="http://www.w3.org/1999/xlink">
<g id="graph0" class="graph" transform="scale(1 1) rotate(0) translate(4 140.14)">
<title>G</title>
<polygon fill="white" stroke="none" points="-4,4 -4,-140.14 418,-140.14 418,4 -4,4"/>
<!-- element0 -->
<g id="node1" class="node">
<title>element0</title>
<path fill="lightgrey" stroke="black" d="M12,-37.64C12,-37.64 42,-37.64 42,-37.64 48,-37.64 54,-43.64 54,-49.64 54,-49.64 54,-123.64 54,-123.64 54,-129.64 48,-135.64 42,-135.64 42,-135.64 12,-135.64 12,-135.64 6,-135.64 0,-129.64 0,-123.64 0,-123.64 0,-49.64 0,-49.64 0,-43.64 6,-37.64 12,-37.64"/>
<text xml:space="preserve" text-anchor="middle" x="27" y="-118.34" font-family="Times,serif" font-size="14.00">pos: 0</text>
<polyline fill="none" stroke="black" points="0,-111.14 54,-111.14"/>
<text xml:space="preserve" text-anchor="middle" x="27" y="-93.84" font-family="Times,serif" font-size="14.00">0</text>
<polyline fill="none" stroke="black" points="0,-86.64 54,-86.64"/>
<text xml:space="preserve" text-anchor="middle" x="27" y="-69.34" font-family="Times,serif" font-size="14.00">&#45;1</text>
<polyline fill="none" stroke="black" points="0,-62.14 54,-62.14"/>
<text xml:space="preserve" text-anchor="middle" x="27" y="-44.84" font-family="Times,serif" font-size="14.00">0</text>
</g>
<!-- element1 -->
<g id="node2" class="node">
<title>element1</title>
<path fill="lightgrey" stroke="black" d="M102,-37.64C102,-37.64 132,-37.64 132,-37.64 138,-37.64 144,-43.64 144,-49.64 144,-49.64 144,-123.64 144,-123.64 144,-129.64 138,-135.64 132,-135.64 132,-135.64 102,-135.64 102,-135.64 96,-135.64 90,-129.64 90,-123.64 90,-123.64 90,-49.64 90,-49.64 90,-43.64 96,-37.64 102,-37.64"/>
<text xml:space="preserve" text-anchor="middle" x="117" y="-118.34" font-family="Times,serif" font-size="14.00">pos: 1</text>
<polyline fill="none" stroke="black" points="90,-111.14 144,-111.14"/>
<text xml:space="preserve" text-anchor="middle" x="117" y="-93.84" font-family="Times,serif" font-size="14.00">0</text>
<polyline fill="none" stroke="black" points="90,-86.64 144,-86.64"/>
<text xml:space="preserve" text-anchor="middle" x="117" y="-69.34" font-family="Times,serif" font-size="14.00">10</text>
<polyline fill="none" stroke="black" points="90,-62.14 144,-62.14"/>
<text xml:space="preserve" text-anchor="middle" x="117" y="-44.84" font-family="Times,serif" font-size="14.00">2</text>
</g>
<!-- element0&#45;&gt;element1 -->
<!-- element1&#45;&gt;element0 -->
<g id="edge5" class="edge">
<title>element1&#45;&gt;element0</title>
<path fill="none" stroke="#0000ff" d="M89.62,-92.89C82.13,-93.34 73.84,-93.49 65.82,-93.34"/>
<polygon fill="#0000ff" stroke="#0000ff" points="66.04,-89.84 55.92,-92.95 65.77,-96.84 66.04,-89.84"/>
</g>
<!-- element2 -->
<g id="node3" class="node">
<title>element2</title>
<path fill="lightgrey" stroke="black" d="M192,-37.64C192,-37.64 222,-37.64 222,-37.64 228,-37.64 234,-43.64 234,-49.64 234,-49.64 234,-123.64 234,-123.64 234,-129.64 228,-135.64 222,-135.64 222,-135.64 192,-135.64 192,-135.64 186,-135.64 180,-129.64 180,-123.64 180,-123.64 180,-49.64 180,-49.64 180,-43.64 186,-37.64 192,-37.64"/>
<text xml:space="preserve" text-anchor="middle" x="207" y="-118.34" font-family="Times,serif" font-size="14.00">pos: 2</text>
<polyline fill="none" stroke="black" points="180,-111.14 234,-111.14"/>
<text xml:space="preserve" text-anchor="middle" x="207" y="-93.84" font-family="Times,serif" font-size="14.00">1</text>
<polyline fill="none" stroke="black" points="180,-86.64 234,-86.64"/>
<text xml:space="preserve" text-anchor="middle" x="207" y="-69.34" font-family="Times,serif" font-size="14.00">20</text>
<polyline fill="none" stroke="black" points="180,-62.14 234,-62.14"/>
<text xml:space="preserve" text-anchor="middle" x="207" y="-44.84" font-family="Times,serif" font-size="14.00">3</text>
</g>
<!-- element1&#45;&gt;element2 -->
<!-- element1&#45;&gt;element2 -->
<g id="edge6" class="edge">
<title>element1&#45;&gt;element2</title>
<path fill="none" stroke="#ff0000" d="M144.4,-86.64C151.89,-86.64 160.18,-86.64 168.2,-86.64"/>
<polygon fill="#ff0000" stroke="#ff0000" points="168.1,-90.14 178.1,-86.64 168.1,-83.14 168.1,-90.14"/>
</g>
<!-- element2&#45;&gt;element1 -->
<g id="edge7" class="edge">
<title>element2&#45;&gt;element1</title>
<path fill="none" stroke="#0000ff" d="M179.62,-99.13C172.13,-100.04 163.84,-100.34 155.82,-100.03"/>
<polygon fill="#0000ff" stroke="#0000ff" points="156.15,-96.54 145.91,-99.25 155.61,-103.52 156.15,-96.54"/>
</g>
<!-- element3 -->
<g id="node4" class="node">
<title>element3</title>
<path fill="lightgrey" stroke="black" d="M282,-37.64C282,-37.64 312,-37.64 312,-37.64 318,-37.64 324,-43.64 324,-49.64 324,-49.64 324,-123.64 324,-123.64 324,-129.64 318,-135.64 312,-135.64 312,-135.64 282,-135.64 282,-135.64 276,-135.64 270,-129.64 270,-123.64 270,-123.64 270,-49.64 270,-49.64 270,-43.64 276,-37.64 282,-37.64"/>
<text xml:space="preserve" text-anchor="middle" x="297" y="-118.34" font-family="Times,serif" font-size="14.00">pos: 3</text>
<polyline fill="none" stroke="black" points="270,-111.14 324,-111.14"/>
<text xml:space="preserve" text-anchor="middle" x="297" y="-93.84" font-family="Times,serif" font-size="14.00">2</text>
<polyline fill="none" stroke="black" points="270,-86.64 324,-86.64"/>
<text xml:space="preserve" text-anchor="middle" x="297" y="-69.34" font-family="Times,serif" font-size="14.00">30</text>
<polyline fill="none" stroke="black" points="270,-62.14 324,-62.14"/>
<text xml:space="preserve" text-anchor="middle" x="297" y="-44.84" font-family="Times,serif" font-size="14.00">4</text>
</g>
<!-- element2&#45;&gt;element3 -->
<!-- element2&#45;&gt;element3 -->
<g id="edge8" class="edge">
<title>element2&#45;&gt;element3</title>
<path fill="none" stroke="#ff0000" d="M234.4,-86.64C241.89,-86.64 250.18,-86.64 258.2,-86.64"/>
<polygon fill="#ff0000" stroke="#ff0000" points="258.1,-90.14 268.1,-86.64 258.1,-83.14 258.1,-90.14"/>
</g>
<!-- element3&#45;&gt;element2 -->
<g id="edge9" class="edge">
<title>element3&#45;&gt;element2</title>
<path fill="none" stroke="#0000ff" d="M269.62,-99.13C262.13,-100.04 253.84,-100.34 245.82,-100.03"/>
<polygon fill="#0000ff" stroke="#0000ff" points="246.15,-96.54 235.91,-99.25 245.61,-103.52 246.15,-96.54"/>
</g>
<!-- element4 -->
<g id="node5" class="node">
<title>element4</title>
<path fill="lightgrey" stroke="black" d="M372,-37.64C372,-37.64 402,-37.64 402,-37.64 408,-37.64 414,-43.64 414,-49.64 414,-49.64 414,-123.64 414,-123.64 414,-129.64 408,-135.64 402,-135.64 402,-135.64 372,-135.64 372,-135.64 366,-135.64 360,-129.64 360,-123.64 360,-123.64 360,-49.64 360,-49.64 360,-43.64 366,-37.64 372,-37.64"/>
<text xml:space="preserve" text-anchor="middle" x="387" y="-118.34" font-family="Times,serif" font-size="14.00">pos: 4</text>
<polyline fill="none" stroke="black" points="360,-111.14 414,-111.14"/>
<text xml:space="preserve" text-anchor="middle" x="387" y="-93.84" font-family="Times,serif" font-size="14.00">3</text>
<polyline fill="none" stroke="black" points="360,-86.64 414,-86.64"/>
<text xml:space="preserve" text-anchor="middle" x="387" y="-69.34" font-family="Times,serif" font-size="14.00">40</text>
<polyline fill="none" stroke="black" points="360,-62.14 414,-62.14"/>
<text xml:space="preserve" text-anchor="middle" x="387" y="-44.84" font-family="Times,serif" font-size="14.00">0</text>
</g>
<!-- element3&#45;&gt;element4 -->
<!-- element3&#45;&gt;element4 -->
<g id="edge10" class="edge">
<title>element3&#45;&gt;element4</title>
<path fill="none" stroke="#ff0000" d="M324.4,-86.64C331.89,-86.64 340.18,-86.64 348.2,-86.64"/>
<polygon fill="#ff0000" stroke="#ff0000" points="348.1,-90.14 358.1,-86.64 348.1,-83.14 348.1,-90.14"/>
</g>
<!-- element4&#45;&gt;element0 -->
<g id="edge12" class="edge">
<title>element4&#45;&gt;element0</title>
<path fill="none" stroke="#ff0000" d="M359.65,-53.7C349.67,-43.69 337.44,-33.95 324,-28.64 227.27,9.55 186.73,9.55 90,-28.64 80.13,-32.54 70.91,-38.83 62.76,-45.86"/>
<polygon fill="#ff0000" stroke="#ff0000" points="60.38,-43.29 55.45,-52.67 65.15,-48.41 60.38,-43.29"/>
</g>
<!-- element4&#45;&gt;element3 -->
<g id="edge11" class="edge">
<title>element4&#45;&gt;element3</title>
<path fill="none" stroke="#0000ff" d="M359.62,-99.13C352.13,-100.04 343.84,-100.34 335.82,-100.03"/>
<polygon fill="#0000ff" stroke="#0000ff" points="336.15,-96.54 325.91,-99.25 335.61,-103.52 336.15,-96.54"/>
</g>
</g>
</svg>
