<?xml version="1.0" encoding="UTF-8" standalone="no"?>
<!DOCTYPE svg PUBLIC "-//W3C//DTD SVG 1.1//EN"
 "http://www.w3.org/Graphics/SVG/1.1/DTD/svg11.dtd">
<!-- Generated by graphviz version 14.0.2 (20251019.1705)
 -->
<!-- Title: G Pages: 1 -->
<svg width="782pt" height="177pt"
 viewBox="0.00 0.00 782.00 177.00" xmlns="http://www.w3.org/2000/svg" xmlns:xlink="http://www.w3.org/1999/xlink">
<g id="graph0" class="graph" transform="scale(1 1) rotate(0) translate(4 173.16)">
<title>G</title>
<polygon fill="white" stroke="none" points="-4,4 -4,-173.16 778,-173.16 778,4 -4,4"/>
<!-- element0 -->
<g id="node1" class="node">
<title>element0</title>
<path fill="lightgrey" stroke="black" d="M12,-70.66C12,-70.66 42,-70.66 42,-70.66 48,-70.66 54,-76.66 54,-82.66 54,-82.66 54,-156.66 54,-156.66 54,-162.66 48,-168.66 42,-168.66 42,-168.66 12,-168.66 12,-168.66 6,-168.66 0,-162.66 0,-156.66 0,-156.66 0,-82.66 0,-82.66 0,-76.66 6,-70.66 12,-70.66"/>
<text xml:space="preserve" text-anchor="middle" x="27" y="-151.36" font-family="Times,serif" font-size="14.00">pos: 0</text>
<polyline fill="none" stroke="black" points="0,-144.16 54,-144.16"/>
<text xml:space="preserve" text-anchor="middle" x="27" y="-126.86" font-family="Times,serif" font-size="14.00">0</text>
<polyline fill="none" stroke="black" points="0,-119.66 54,-119.66"/>
<text xml:space="preserve" text-anchor="middle" x="27" y="-102.36" font-family="Times,serif" font-size="14.00">&#45;1</text>
<polyline fill="none" stroke="black" points="0,-95.16 54,-95.16"/>
<text xml:space="preserve" text-anchor="middle" x="27" y="-77.86" font-family="Times,serif" font-size="14.00">0</text>
</g>
<!-- element1 -->
<g id="node2" class="node">
<title>element1</title>
<path fill="lightgrey" stroke="black" d="M102,-70.66C102,-70.66 132,-70.66 132,-70.66 138,-70.66 144,-76.66 144,-82.66 144,-82.66 144,-156.66 144,-156.66 144,-162.66 138,-168.66 132,-168.66 132,-168.66 102,-168.66 102,-168.66 96,-168.66 90,-162.66 90,-156.66 90,-156.66 90,-82.66 90,-82.66 90,-76.66 96,-70.66 102,-70.66"/>
<text xml:space="preserve" text-anchor="middle" x="117" y="-151.36" font-family="Times,serif" font-size="14.00">pos: 1</text>
<polyline fill="none" stroke="black" points="90,-144.16 144,-144.16"/>
<text xml:space="preserve" text-anchor="middle" x="117" y="-126.86" font-family="Times,serif" font-size="14.00">&#45;1</text>
<polyline fill="none" stroke="black" points="90,-119.66 144,-119.66"/>
<text xml:space="preserve" text-anchor="middle" x="117" y="-102.36" font-family="Times,serif" font-size="14.00">&#45;1</text>
<polyline fill="none" stroke="black" points="90,-95.16 144,-95.16"/>
<text xml:space="preserve" text-anchor="middle" x="117" y="-77.86" font-family="Times,serif" font-size="14.00">&#45;1</text>
</g>
<!-- element0&#45;&gt;element1 -->
<!-- element2 -->
<g id="node3" class="node">
<title>element2</title>
<path fill="lightgrey" stroke="black" d="M192,-70.66C192,-70.66 222,-70.66 222,-70.66 228,-70.66 234,-76.66 234,-82.66 234,-82.66 234,-156.66 234,-156.66 234,-162.66 228,-168.66 222,-168.66 222,-168.66 192,-168.66 192,-168.66 186,-168.66 180,-162.66 180,-156.66 180,-156.66 180,-82.66 180,-82.66 180,-76.66 186,-70.66 192,-70.66"/>
<text xml:space="preserve" text-anchor="middle" x="207" y="-151.36" font-family="Times,serif" font-size="14.00">pos: 2</text>
<polyline fill="none" stroke="black" points="180,-144.16 234,-144.16"/>
<text xml:space="preserve" text-anchor="middle" x="207" y="-126.86" font-family="Times,serif" font-size="14.00">0</text>
<polyline fill="none" stroke="black" points="180,-119.66 234,-119.66"/>
<text xml:space="preserve" text-anchor="middle" x="207" y="-102.36" font-family="Times,serif" font-size="14.00">20</text>
<polyline fill="none" stroke="black" points="180,-95.16 234,-95.16"/>
<text xml:space="preserve" text-anchor="middle" x="207" y="-77.86" font-family="Times,serif" font-size="14.00">4</text>
</g>
<!-- element1&#45;&gt;element2 -->
<!-- element2&#45;&gt;element0 -->
<g id="edge9" class="edge">
<title>element2&#45;&gt;element0</title>
<path fill="none" stroke="#0000ff" d="M179.65,-86.71C169.67,-76.71 157.44,-66.96 144,-61.66 121.68,-52.84 112.32,-52.84 90,-61.66 80.13,-65.55 70.91,-71.84 62.76,-78.87"/>
<polygon fill="#0000ff" stroke="#0000ff" points="60.38,-76.3 55.45,-85.68 65.15,-81.42 60.38,-76.3"/>
</g>
<!-- element3 -->
<g id="node4" class="node">
<title>element3</title>
<path fill="lightgrey" stroke="black" d="M282,-70.66C282,-70.66 312,-70.66 312,-70.66 318,-70.66 324,-76.66 324,-82.66 324,-82.66 324,-156.66 324,-156.66 324,-162.66 318,-168.66 312,-168.66 312,-168.66 282,-168.66 282,-168.66 276,-168.66 270,-162.66 270,-156.66 270,-156.66 270,-82.66 270,-82.66 270,-76.66 276,-70.66 282,-70.66"/>
<text xml:space="preserve" text-anchor="middle" x="297" y="-151.36" font-family="Times,serif" font-size="14.00">pos: 3</text>
<polyline fill="none" stroke="black" points="270,-144.16 324,-144.16"/>
<text xml:space="preserve" text-anchor="middle" x="297" y="-126.86" font-family="Times,serif" font-size="14.00">&#45;1</text>
<polyline fill="none" stroke="black" points="270,-119.66 324,-119.66"/>
<text xml:space="preserve" text-anchor="middle" x="297" y="-102.36" font-family="Times,serif" font-size="14.00">&#45;1</text>
<polyline fill="none" stroke="black" points="270,-95.16 324,-95.16"/>
<text xml:space="preserve" text-anchor="middle" x="297" y="-77.86" font-family="Times,serif" font-size="14.00">&#45;1</text>
</g>
<!-- element2&#45;&gt;element3 -->
<!-- element4 -->
<g id="node5" class="node">
<title>element4</title>
<path fill="lightgrey" stroke="black" d="M372,-70.66C372,-70.66 402,-70.66 402,-70.66 408,-70.66 414,-76.66 414,-82.66 414,-82.66 414,-156.66 414,-156.66 414,-162.66 408,-168.66 402,-168.66 402,-168.66 372,-168.66 372,-168.66 366,-168.66 360,-162.66 360,-156.66 360,-156.66 360,-82.66 360,-82.66 360,-76.66 366,-70.66 372,-70.66"/>
<text xml:space="preserve" text-anchor="middle" x="387" y="-151.36" font-family="Times,serif" font-size="14.00">pos: 4</text>
<polyline fill="none" stroke="black" points="360,-144.16 414,-144.16"/>
<text xml:space="preserve" text-anchor="middle" x="387" y="-126.86" font-family="Times,serif" font-size="14.00">2</text>
<polyline fill="none" stroke="black" points="360,-119.66 414,-119.66"/>
<text xml:space="preserve" text-anchor="middle" x="387" y="-102.36" font-family="Times,serif" font-size="14.00">40</text>
<polyline fill="none" stroke="black" points="360,-95.16 414,-95.16"/>
<text xml:space="preserve" text-anchor="middle" x="387" y="-77.86" font-family="Times,serif" font-size="14.00">5</text>
</g>
<!-- element2&#45;&gt;element4 -->
<g id="edge10" class="edge">
<title>element2&#45;&gt;element4</title>
<path fill="none" stroke="#ff0000" d="M234.35,-78.22C244.33,-67.71 256.56,-57.96 270,-52.66 292.32,-43.84 301.68,-43.84 324,-52.66 333.97,-56.59 343.28,-62.98 351.5,-70.3"/>
<polygon fill="#ff0000" stroke="#ff0000" points="348.96,-72.71 358.57,-77.16 353.83,-67.69 348.96,-72.71"/>
</g>
<!-- element3&#45;&gt;element4 -->
<!-- element4&#45;&gt;element2 -->
<g id="edge11" class="edge">
<title>element4&#45;&gt;element2</title>
<path fill="none" stroke="#0000ff" d="M359.65,-95.21C349.67,-85.71 337.44,-75.96 324,-70.66 301.68,-61.84 292.32,-61.84 270,-70.66 260.13,-74.55 250.91,-80.84 242.76,-87.67"/>
<polygon fill="#0000ff" stroke="#0000ff" points="240.59,-84.92 235.47,-94.2 245.26,-90.13 240.59,-84.92"/>
</g>
<!-- element5 -->
<g id="node6" class="node">
<title>element5</title>
<path fill="lightgrey" stroke="black" d="M462,-70.66C462,-70.66 492,-70.66 492,-70.66 498,-70.66 504,-76.66 504,-82.66 504,-82.66 504,-156.66 504,-156.66 504,-162.66 498,-168.66 492,-168.66 492,-168.66 462,-168.66 462,-168.66 456,-168.66 450,-162.66 450,-156.66 450,-156.66 450,-82.66 450,-82.66 450,-76.66 456,-70.66 462,-70.66"/>
<text xml:space="preserve" text-anchor="middle" x="477" y="-151.36" font-family="Times,serif" font-size="14.00">pos: 5</text>
<polyline fill="none" stroke="black" points="450,-144.16 504,-144.16"/>
<text xml:space="preserve" text-anchor="middle" x="477" y="-126.86" font-family="Times,serif" font-size="14.00">4</text>
<polyline fill="none" stroke="black" points="450,-119.66 504,-119.66"/>
<text xml:space="preserve" text-anchor="middle" x="477" y="-102.36" font-family="Times,serif" font-size="14.00">50</text>
<polyline fill="none" stroke="black" points="450,-95.16 504,-95.16"/>
<text xml:space="preserve" text-anchor="middle" x="477" y="-77.86" font-family="Times,serif" font-size="14.00">6</text>
</g>
<!-- element4&#45;&gt;element5 -->
<!-- element4&#45;&gt;element5 -->
<g id="edge12" class="edge">
<title>element4&#45;&gt;element5</title>
<path fill="none" stroke="#ff0000" d="M414.4,-119.66C421.89,-119.66 430.18,-119.66 438.2,-119.66"/>
<polygon fill="#ff0000" stroke="#ff0000" points="438.1,-123.16 448.1,-119.66 438.1,-116.16 438.1,-123.16"/>
</g>
<!-- element5&#45;&gt;element4 -->
<g id="edge13" class="edge">
<title>element5&#45;&gt;element4</title>
<path fill="none" stroke="#0000ff" d="M449.62,-132.15C442.13,-133.05 433.84,-133.35 425.82,-133.04"/>
<polygon fill="#0000ff" stroke="#0000ff" points="426.15,-129.55 415.91,-132.27 425.61,-136.53 426.15,-129.55"/>
</g>
<!-- element6 -->
<g id="node7" class="node">
<title>element6</title>
<path fill="lightgrey" stroke="black" d="M552,-70.66C552,-70.66 582,-70.66 582,-70.66 588,-70.66 594,-76.66 594,-82.66 594,-82.66 594,-156.66 594,-156.66 594,-162.66 588,-168.66 582,-168.66 582,-168.66 552,-168.66 552,-168.66 546,-168.66 540,-162.66 540,-156.66 540,-156.66 540,-82.66 540,-82.66 540,-76.66 546,-70.66 552,-70.66"/>
<text xml:space="preserve" text-anchor="middle" x="567" y="-151.36" font-family="Times,serif" font-size="14.00">pos: 6</text>
<polyline fill="none" stroke="black" points="540,-144.16 594,-144.16"/>
<text xml:space="preserve" text-anchor="middle" x="567" y="-126.86" font-family="Times,serif" font-size="14.00">5</text>
<polyline fill="none" stroke="black" points="540,-119.66 594,-119.66"/>
<text xml:space="preserve" text-anchor="middle" x="567" y="-102.36" font-family="Times,serif" font-size="14.00">60</text>
<polyline fill="none" stroke="black" points="540,-95.16 594,-95.16"/>
<text xml:space="preserve" text-anchor="middle" x="567" y="-77.86" font-family="Times,serif" font-size="14.00">0</text>
</g>
<!-- element5&#45;&gt;element6 -->
<!-- element5&#45;&gt;element6 -->
<g id="edge14" class="edge">
<title>element5&#45;&gt;element6</title>
<path fill="none" stroke="#ff0000" d="M504.4,-119.66C511.89,-119.66 520.18,-119.66 528.2,-119.66"/>
<polygon fill="#ff0000" stroke="#ff0000" points="528.1,-123.16 538.1,-119.66 528.1,-116.16 528.1,-123.16"/>
</g>
<!-- element6&#45;&gt;element0 -->
<g id="edge16" class="edge">
<title>element6&#45;&gt;element0</title>
<path fill="none" stroke="#ff0000" d="M539.77,-87.48C529.71,-77.41 517.4,-67.43 504,-61.66 334.94,11.13 258.11,24.29 90,-50.66 79.63,-55.28 70.27,-62.59 62.15,-70.76"/>
<polygon fill="#ff0000" stroke="#ff0000" points="59.66,-68.29 55.47,-78.03 64.82,-73.03 59.66,-68.29"/>
</g>
<!-- element6&#45;&gt;element5 -->
<g id="edge15" class="edge">
<title>element6&#45;&gt;element5</title>
<path fill="none" stroke="#0000ff" d="M539.62,-132.15C532.13,-133.05 523.84,-133.35 515.82,-133.04"/>
<polygon fill="#0000ff" stroke="#0000ff" points="516.15,-129.55 505.91,-132.27 515.61,-136.53 516.15,-129.55"/>
</g>
<!-- element7 -->
<g id="node8" class="node">
<title>element7</title>
<path fill="lightgrey" stroke="black" d="M642,-70.66C642,-70.66 672,-70.66 672,-70.66 678,-70.66 684,-76.66 684,-82.66 684,-82.66 684,-156.66 684,-156.66 684,-162.66 678,-168.66 672,-168.66 672,-168.66 642,-168.66 642,-168.66 636,-168.66 630,-162.66 630,-156.66 630,-156.66 630,-82.66 630,-82.66 630,-76.66 636,-70.66 642,-70.66"/>
<text xml:space="preserve" text-anchor="middle" x="657" y="-151.36" font-family="Times,serif" font-size="14.00">pos: 7</text>
<polyline fill="none" stroke="black" points="630,-144.16 684,-144.16"/>
<text xml:space="preserve" text-anchor="middle" x="657" y="-126.86" font-family="Times,serif" font-size="14.00">&#45;1</text>
<polyline fill="none" stroke="black" points="630,-119.66 684,-119.66"/>
<text xml:space="preserve" text-anchor="middle" x="657" y="-102.36" font-family="Times,serif" font-size="14.00">&#45;1</text>
<polyline fill="none" stroke="black" points="630,-95.16 684,-95.16"/>
<text xml:space="preserve" text-anchor="middle" x="657" y="-77.86" font-family="Times,serif" font-size="14.00">&#45;1</text>
</g>
<!-- element6&#45;&gt;element7 -->
<!-- element8 -->
<g id="node9" class="node">
<title>element8</title>
<path fill="lightgrey" stroke="black" d="M732,-70.66C732,-70.66 762,-70.66 762,-70.66 768,-70.66 774,-76.66 774,-82.66 774,-82.66 774,-156.66 774,-156.66 774,-162.66 768,-168.66 762,-168.66 762,-168.66 732,-168.66 732,-168.66 726,-168.66 720,-162.66 720,-156.66 720,-156.66 720,-82.66 720,-82.66 720,-76.66 726,-70.66 732,-70.66"/>
<text xml:space="preserve" text-anchor="middle" x="747" y="-151.36" font-family="Times,serif" font-size="14.00">pos: 8</text>
<polyline fill="none" stroke="black" points="720,-144.16 774,-144.16"/>
<text xml:space="preserve" text-anchor="middle" x="747" y="-126.86" font-family="Times,serif" font-size="14.00">&#45;1</text>
<polyline fill="none" stroke="black" points="720,-119.66 774,-119.66"/>
<text xml:space="preserve" text-anchor="middle" x="747" y="-102.36" font-family="Times,serif" font-size="14.00">&#45;1</text>
<polyline fill="none" stroke="black" points="720,-95.16 774,-95.16"/>
<text xml:space="preserve" text-anchor="middle" x="747" y="-77.86" font-family="Times,serif" font-size="14.00">&#45;1</text>
</g>
<!-- element7&#45;&gt;element8 -->
</g>
</svg>
