<?xml version="1.0" encoding="UTF-8" standalone="no"?>
<!DOCTYPE svg PUBLIC "-//W3C//DTD SVG 1.1//EN"
 "http://www.w3.org/Graphics/SVG/1.1/DTD/svg11.dtd">
<!-- Generated by graphviz version 14.0.2 (20251019.1705)
 -->
<!-- Title: G Pages: 1 -->
<svg width="782pt" height="139pt"
 viewBox="0.00 0.00 782.00 139.00" xmlns="http://www.w3.org/2000/svg" xmlns:xlink="http://www.w3.org/1999/xlink">
<g id="graph0" class="graph" transform="scale(1 1) rotate(0) translate(4 134.8)">
<title>G</title>
<polygon fill="white" stroke="none" points="-4,4 -4,-134.8 778,-134.8 778,4 -4,4"/>
<!-- element0 -->
<g id="node1" class="node">
<title>element0</title>
<path fill="lightgrey" stroke="black" d="M12,-32.3C12,-32.3 42,-32.3 42,-32.3 48,-32.3 54,-38.3 54,-44.3 54,-44.3 54,-118.3 54,-118.3 54,-124.3 48,-130.3 42,-130.3 42,-130.3 12,-130.3 12,-130.3 6,-130.3 0,-124.3 0,-118.3 0,-118.3 0,-44.3 0,-44.3 0,-38.3 6,-32.3 12,-32.3"/>
<text xml:space="preserve" text-anchor="middle" x="27" y="-113" font-family="Times,serif" font-size="14.00">pos: 0</text>
<polyline fill="none" stroke="black" points="0,-105.8 54,-105.8"/>
<text xml:space="preserve" text-anchor="middle" x="27" y="-88.5" font-family="Times,serif" font-size="14.00">0</text>
<polyline fill="none" stroke="black" points="0,-81.3 54,-81.3"/>
<text xml:space="preserve" text-anchor="middle" x="27" y="-64" font-family="Times,serif" font-size="14.00">&#45;1</text>
<polyline fill="none" stroke="black" points="0,-56.8 54,-56.8"/>
<text xml:space="preserve" text-anchor="middle" x="27" y="-39.5" font-family="Times,serif" font-size="14.00">0</text>
</g>
<!-- element1 -->
<g id="node2" class="node">
<title>element1</title>
<path fill="lightgrey" stroke="black" d="M102,-32.3C102,-32.3 132,-32.3 132,-32.3 138,-32.3 144,-38.3 144,-44.3 144,-44.3 144,-118.3 144,-118.3 144,-124.3 138,-130.3 132,-130.3 132,-130.3 102,-130.3 102,-130.3 96,-130.3 90,-124.3 90,-118.3 90,-118.3 90,-44.3 90,-44.3 90,-38.3 96,-32.3 102,-32.3"/>
<text xml:space="preserve" text-anchor="middle" x="117" y="-113" font-family="Times,serif" font-size="14.00">pos: 1</text>
<polyline fill="none" stroke="black" points="90,-105.8 144,-105.8"/>
<text xml:space="preserve" text-anchor="middle" x="117" y="-88.5" font-family="Times,serif" font-size="14.00">&#45;1</text>
<polyline fill="none" stroke="black" points="90,-81.3 144,-81.3"/>
<text xml:space="preserve" text-anchor="middle" x="117" y="-64" font-family="Times,serif" font-size="14.00">&#45;1</text>
<polyline fill="none" stroke="black" points="90,-56.8 144,-56.8"/>
<text xml:space="preserve" text-anchor="middle" x="117" y="-39.5" font-family="Times,serif" font-size="14.00">&#45;1</text>
</g>
<!-- element0&#45;&gt;element1 -->
<!-- element2 -->
<g id="node3" class="node">
<title>element2</title>
<path fill="lightgrey" stroke="black" d="M192,-32.3C192,-32.3 222,-32.3 222,-32.3 228,-32.3 234,-38.3 234,-44.3 234,-44.3 234,-118.3 234,-118.3 234,-124.3 228,-130.3 222,-130.3 222,-130.3 192,-130.3 192,-130.3 186,-130.3 180,-124.3 180,-118.3 180,-118.3 180,-44.3 180,-44.3 180,-38.3 186,-32.3 192,-32.3"/>
<text xml:space="preserve" text-anchor="middle" x="207" y="-113" font-family="Times,serif" font-size="14.00">pos: 2</text>
<polyline fill="none" stroke="black" points="180,-105.8 234,-105.8"/>
<text xml:space="preserve" text-anchor="middle" x="207" y="-88.5" font-family="Times,serif" font-size="14.00">0</text>
<polyline fill="none" stroke="black" points="180,-81.3 234,-81.3"/>
<text xml:space="preserve" text-anchor="middle" x="207" y="-64" font-family="Times,serif" font-size="14.00">20</text>
<polyline fill="none" stroke="black" points="180,-56.8 234,-56.8"/>
<text xml:space="preserve" text-anchor="middle" x="207" y="-39.5" font-family="Times,serif" font-size="14.00">3</text>
</g>
<!-- element1&#45;&gt;element2 -->
<!-- element2&#45;&gt;element0 -->
<g id="edge9" class="edge">
<title>element2&#45;&gt;element0</title>
<path fill="none" stroke="#0000ff" d="M179.65,-48.36C169.67,-38.35 157.44,-28.61 144,-23.3 121.68,-14.49 112.32,-14.49 90,-23.3 80.13,-27.2 70.91,-33.49 62.76,-40.52"/>
<polygon fill="#0000ff" stroke="#0000ff" points="60.38,-37.95 55.45,-47.33 65.15,-43.07 60.38,-37.95"/>
</g>
<!-- element3 -->
<g id="node4" class="node">
<title>element3</title>
<path fill="lightgrey" stroke="black" d="M282,-32.3C282,-32.3 312,-32.3 312,-32.3 318,-32.3 324,-38.3 324,-44.3 324,-44.3 324,-118.3 324,-118.3 324,-124.3 318,-130.3 312,-130.3 312,-130.3 282,-130.3 282,-130.3 276,-130.3 270,-124.3 270,-118.3 270,-118.3 270,-44.3 270,-44.3 270,-38.3 276,-32.3 282,-32.3"/>
<text xml:space="preserve" text-anchor="middle" x="297" y="-113" font-family="Times,serif" font-size="14.00">pos: 3</text>
<polyline fill="none" stroke="black" points="270,-105.8 324,-105.8"/>
<text xml:space="preserve" text-anchor="middle" x="297" y="-88.5" font-family="Times,serif" font-size="14.00">2</text>
<polyline fill="none" stroke="black" points="270,-81.3 324,-81.3"/>
<text xml:space="preserve" text-anchor="middle" x="297" y="-64" font-family="Times,serif" font-size="14.00">30</text>
<polyline fill="none" stroke="black" points="270,-56.8 324,-56.8"/>
<text xml:space="preserve" text-anchor="middle" x="297" y="-39.5" font-family="Times,serif" font-size="14.00">4</text>
</g>
<!-- element2&#45;&gt;element3 -->
<!-- element2&#45;&gt;element3 -->
<g id="edge10" class="edge">
<title>element2&#45;&gt;element3</title>
<path fill="none" stroke="#ff0000" d="M234.4,-81.3C241.89,-81.3 250.18,-81.3 258.2,-81.3"/>
<polygon fill="#ff0000" stroke="#ff0000" points="258.1,-84.8 268.1,-81.3 258.1,-77.8 258.1,-84.8"/>
</g>
<!-- element3&#45;&gt;element2 -->
<g id="edge11" class="edge">
<title>element3&#45;&gt;element2</title>
<path fill="none" stroke="#0000ff" d="M269.62,-93.79C262.13,-94.7 253.84,-95 245.82,-94.69"/>
<polygon fill="#0000ff" stroke="#0000ff" points="246.15,-91.2 235.91,-93.91 245.61,-98.18 246.15,-91.2"/>
</g>
<!-- element4 -->
<g id="node5" class="node">
<title>element4</title>
<path fill="lightgrey" stroke="black" d="M372,-32.3C372,-32.3 402,-32.3 402,-32.3 408,-32.3 414,-38.3 414,-44.3 414,-44.3 414,-118.3 414,-118.3 414,-124.3 408,-130.3 402,-130.3 402,-130.3 372,-130.3 372,-130.3 366,-130.3 360,-124.3 360,-118.3 360,-118.3 360,-44.3 360,-44.3 360,-38.3 366,-32.3 372,-32.3"/>
<text xml:space="preserve" text-anchor="middle" x="387" y="-113" font-family="Times,serif" font-size="14.00">pos: 4</text>
<polyline fill="none" stroke="black" points="360,-105.8 414,-105.8"/>
<text xml:space="preserve" text-anchor="middle" x="387" y="-88.5" font-family="Times,serif" font-size="14.00">3</text>
<polyline fill="none" stroke="black" points="360,-81.3 414,-81.3"/>
<text xml:space="preserve" text-anchor="middle" x="387" y="-64" font-family="Times,serif" font-size="14.00">40</text>
<polyline fill="none" stroke="black" points="360,-56.8 414,-56.8"/>
<text xml:space="preserve" text-anchor="middle" x="387" y="-39.5" font-family="Times,serif" font-size="14.00">5</text>
</g>
<!-- element3&#45;&gt;element4 -->
<!-- element3&#45;&gt;element4 -->
<g id="edge12" class="edge">
<title>element3&#45;&gt;element4</title>
<path fill="none" stroke="#ff0000" d="M324.4,-81.3C331.89,-81.3 340.18,-81.3 348.2,-81.3"/>
<polygon fill="#ff0000" stroke="#ff0000" points="348.1,-84.8 358.1,-81.3 348.1,-77.8 348.1,-84.8"/>
</g>
<!-- element4&#45;&gt;element3 -->
<g id="edge13" class="edge">
<title>element4&#45;&gt;element3</title>
<path fill="none" stroke="#0000ff" d="M359.62,-93.79C352.13,-94.7 343.84,-95 335.82,-94.69"/>
<polygon fill="#0000ff" stroke="#0000ff" points="336.15,-91.2 325.91,-93.91 335.61,-98.18 336.15,-91.2"/>
</g>
<!-- element5 -->
<g id="node6" class="node">
<title>element5</title>
<path fill="lightgrey" stroke="black" d="M462,-32.3C462,-32.3 492,-32.3 492,-32.3 498,-32.3 504,-38.3 504,-44.3 504,-44.3 504,-118.3 504,-118.3 504,-124.3 498,-130.3 492,-130.3 492,-130.3 462,-130.3 462,-130.3 456,-130.3 450,-124.3 450,-118.3 450,-118.3 450,-44.3 450,-44.3 450,-38.3 456,-32.3 462,-32.3"/>
<text xml:space="preserve" text-anchor="middle" x="477" y="-113" font-family="Times,serif" font-size="14.00">pos: 5</text>
<polyline fill="none" stroke="black" points="450,-105.8 504,-105.8"/>
<text xml:space="preserve" text-anchor="middle" x="477" y="-88.5" font-family="Times,serif" font-size="14.00">4</text>
<polyline fill="none" stroke="black" points="450,-81.3 504,-81.3"/>
<text xml:space="preserve" text-anchor="middle" x="477" y="-64" font-family="Times,serif" font-size="14.00">50</text>
<polyline fill="none" stroke="black" points="450,-56.8 504,-56.8"/>
<text xml:space="preserve" text-anchor="middle" x="477" y="-39.5" font-family="Times,serif" font-size="14.00">0</text>
</g>
<!-- element4&#45;&gt;element5 -->
<!-- element4&#45;&gt;element5 -->
<g id="edge14" class="edge">
<title>element4&#45;&gt;element5</title>
<path fill="none" stroke="#ff0000" d="M414.4,-81.3C421.89,-81.3 430.18,-81.3 438.2,-81.3"/>
<polygon fill="#ff0000" stroke="#ff0000" points="438.1,-84.8 448.1,-81.3 438.1,-77.8 438.1,-84.8"/>
</g>
<!-- element5&#45;&gt;element0 -->
<g id="edge16" class="edge">
<title>element5&#45;&gt;element0</title>
<path fill="none" stroke="#ff0000" d="M449.53,-48.67C439.53,-38.69 427.32,-28.88 414,-23.3 303.21,23.07 264.07,-14.75 144,-12.3 120,-11.82 111.92,-2.53 90,-12.3 79.63,-16.93 70.27,-24.24 62.15,-32.4"/>
<polygon fill="#ff0000" stroke="#ff0000" points="59.66,-29.94 55.47,-39.67 64.82,-34.67 59.66,-29.94"/>
</g>
<!-- element5&#45;&gt;element4 -->
<g id="edge15" class="edge">
<title>element5&#45;&gt;element4</title>
<path fill="none" stroke="#0000ff" d="M449.62,-93.79C442.13,-94.7 433.84,-95 425.82,-94.69"/>
<polygon fill="#0000ff" stroke="#0000ff" points="426.15,-91.2 415.91,-93.91 425.61,-98.18 426.15,-91.2"/>
</g>
<!-- element6 -->
<g id="node7" class="node">
<title>element6</title>
<path fill="lightgrey" stroke="black" d="M552,-32.3C552,-32.3 582,-32.3 582,-32.3 588,-32.3 594,-38.3 594,-44.3 594,-44.3 594,-118.3 594,-118.3 594,-124.3 588,-130.3 582,-130.3 582,-130.3 552,-130.3 552,-130.3 546,-130.3 540,-124.3 540,-118.3 540,-118.3 540,-44.3 540,-44.3 540,-38.3 546,-32.3 552,-32.3"/>
<text xml:space="preserve" text-anchor="middle" x="567" y="-113" font-family="Times,serif" font-size="14.00">pos: 6</text>
<polyline fill="none" stroke="black" points="540,-105.8 594,-105.8"/>
<text xml:space="preserve" text-anchor="middle" x="567" y="-88.5" font-family="Times,serif" font-size="14.00">&#45;1</text>
<polyline fill="none" stroke="black" points="540,-81.3 594,-81.3"/>
<text xml:space="preserve" text-anchor="middle" x="567" y="-64" font-family="Times,serif" font-size="14.00">&#45;1</text>
<polyline fill="none" stroke="black" points="540,-56.8 594,-56.8"/>
<text xml:space="preserve" text-anchor="middle" x="567" y="-39.5" font-family="Times,serif" font-size="14.00">&#45;1</text>
</g>
<!-- element5&#45;&gt;element6 -->
<!-- element7 -->
<g id="node8" class="node">
<title>element7</title>
<path fill="lightgrey" stroke="black" d="M642,-32.3C642,-32.3 672,-32.3 672,-32.3 678,-32.3 684,-38.3 684,-44.3 684,-44.3 684,-118.3 684,-118.3 684,-124.3 678,-130.3 672,-130.3 672,-130.3 642,-130.3 642,-130.3 636,-130.3 630,-124.3 630,-118.3 630,-118.3 630,-44.3 630,-44.3 630,-38.3 636,-32.3 642,-32.3"/>
<text xml:space="preserve" text-anchor="middle" x="657" y="-113" font-family="Times,serif" font-size="14.00">pos: 7</text>
<polyline fill="none" stroke="black" points="630,-105.8 684,-105.8"/>
<text xml:space="preserve" text-anchor="middle" x="657" y="-88.5" font-family="Times,serif" font-size="14.00">&#45;1</text>
<polyline fill="none" stroke="black" points="630,-81.3 684,-81.3"/>
<text xml:space="preserve" text-anchor="middle" x="657" y="-64" font-family="Times,serif" font-size="14.00">&#45;1</text>
<polyline fill="none" stroke="black" points="630,-56.8 684,-56.8"/>
<text xml:space="preserve" text-anchor="middle" x="657" y="-39.5" font-family="Times,serif" font-size="14.00">&#45;1</text>
</g>
<!-- element6&#45;&gt;element7 -->
<!-- element8 -->
<g id="node9" class="node">
<title>element8</title>
<path fill="lightgrey" stroke="black" d="M732,-32.3C732,-32.3 762,-32.3 762,-32.3 768,-32.3 774,-38.3 774,-44.3 774,-44.3 774,-118.3 774,-118.3 774,-124.3 768,-130.3 762,-130.3 762,-130.3 732,-130.3 732,-130.3 726,-130.3 720,-124.3 720,-118.3 720,-118.3 720,-44.3 720,-44.3 720,-38.3 726,-32.3 732,-32.3"/>
<text xml:space="preserve" text-anchor="middle" x="747" y="-113" font-family="Times,serif" font-size="14.00">pos: 8</text>
<polyline fill="none" stroke="black" points="720,-105.8 774,-105.8"/>
<text xml:space="preserve" text-anchor="middle" x="747" y="-88.5" font-family="Times,serif" font-size="14.00">&#45;1</text>
<polyline fill="none" stroke="black" points="720,-81.3 774,-81.3"/>
<text xml:space="preserve" text-anchor="middle" x="747" y="-64" font-family="Times,serif" font-size="14.00">&#45;1</text>
<polyline fill="none" stroke="black" points="720,-56.8 774,-56.8"/>
<text xml:space="preserve" text-anchor="middle" x="747" y="-39.5" font-family="Times,serif" font-size="14.00">&#45;1</text>
</g>
<!-- element7&#45;&gt;element8 -->
</g>
</svg>
