<?xml version="1.0" encoding="UTF-8" standalone="no"?>
<!DOCTYPE svg PUBLIC "-//W3C//DTD SVG 1.1//EN"
 "http://www.w3.org/Graphics/SVG/1.1/DTD/svg11.dtd">
<!-- Generated by graphviz version 14.0.2 (20251019.1705)
 -->
<!-- Title: G Pages: 1 -->
<svg width="782pt" height="145pt"
 viewBox="0.00 0.00 782.00 145.00" xmlns="http://www.w3.org/2000/svg" xmlns:xlink="http://www.w3.org/1999/xlink">
<g id="graph0" class="graph" transform="scale(1 1) rotate(0) translate(4 141.22)">
<title>G</title>
<polygon fill="white" stroke="none" points="-4,4 -4,-141.22 778,-141.22 778,4 -4,4"/>
<!-- element0 -->
<g id="node1" class="node">
<title>element0</title>
<path fill="lightgrey" stroke="black" d="M12,-38.72C12,-38.72 42,-38.72 42,-38.72 48,-38.72 54,-44.72 54,-50.72 54,-50.72 54,-124.72 54,-124.72 54,-130.72 48,-136.72 42,-136.72 42,-136.72 12,-136.72 12,-136.72 6,-136.72 0,-130.72 0,-124.72 0,-124.72 0,-50.72 0,-50.72 0,-44.72 6,-38.72 12,-38.72"/>
<text xml:space="preserve" text-anchor="middle" x="27" y="-119.42" font-family="Times,serif" font-size="14.00">pos: 0</text>
<polyline fill="none" stroke="black" points="0,-112.22 54,-112.22"/>
<text xml:space="preserve" text-anchor="middle" x="27" y="-94.92" font-family="Times,serif" font-size="14.00">0</text>
<polyline fill="none" stroke="black" points="0,-87.72 54,-87.72"/>
<text xml:space="preserve" text-anchor="middle" x="27" y="-70.42" font-family="Times,serif" font-size="14.00">&#45;1</text>
<polyline fill="none" stroke="black" points="0,-63.22 54,-63.22"/>
<text xml:space="preserve" text-anchor="middle" x="27" y="-45.92" font-family="Times,serif" font-size="14.00">0</text>
</g>
<!-- element1 -->
<g id="node2" class="node">
<title>element1</title>
<path fill="lightgrey" stroke="black" d="M102,-38.72C102,-38.72 132,-38.72 132,-38.72 138,-38.72 144,-44.72 144,-50.72 144,-50.72 144,-124.72 144,-124.72 144,-130.72 138,-136.72 132,-136.72 132,-136.72 102,-136.72 102,-136.72 96,-136.72 90,-130.72 90,-124.72 90,-124.72 90,-50.72 90,-50.72 90,-44.72 96,-38.72 102,-38.72"/>
<text xml:space="preserve" text-anchor="middle" x="117" y="-119.42" font-family="Times,serif" font-size="14.00">pos: 1</text>
<polyline fill="none" stroke="black" points="90,-112.22 144,-112.22"/>
<text xml:space="preserve" text-anchor="middle" x="117" y="-94.92" font-family="Times,serif" font-size="14.00">&#45;1</text>
<polyline fill="none" stroke="black" points="90,-87.72 144,-87.72"/>
<text xml:space="preserve" text-anchor="middle" x="117" y="-70.42" font-family="Times,serif" font-size="14.00">&#45;1</text>
<polyline fill="none" stroke="black" points="90,-63.22 144,-63.22"/>
<text xml:space="preserve" text-anchor="middle" x="117" y="-45.92" font-family="Times,serif" font-size="14.00">&#45;1</text>
</g>
<!-- element0&#45;&gt;element1 -->
<!-- element2 -->
<g id="node3" class="node">
<title>element2</title>
<path fill="lightgrey" stroke="black" d="M192,-38.72C192,-38.72 222,-38.72 222,-38.72 228,-38.72 234,-44.72 234,-50.72 234,-50.72 234,-124.72 234,-124.72 234,-130.72 228,-136.72 222,-136.72 222,-136.72 192,-136.72 192,-136.72 186,-136.72 180,-130.72 180,-124.72 180,-124.72 180,-50.72 180,-50.72 180,-44.72 186,-38.72 192,-38.72"/>
<text xml:space="preserve" text-anchor="middle" x="207" y="-119.42" font-family="Times,serif" font-size="14.00">pos: 2</text>
<polyline fill="none" stroke="black" points="180,-112.22 234,-112.22"/>
<text xml:space="preserve" text-anchor="middle" x="207" y="-94.92" font-family="Times,serif" font-size="14.00">0</text>
<polyline fill="none" stroke="black" points="180,-87.72 234,-87.72"/>
<text xml:space="preserve" text-anchor="middle" x="207" y="-70.42" font-family="Times,serif" font-size="14.00">20</text>
<polyline fill="none" stroke="black" points="180,-63.22 234,-63.22"/>
<text xml:space="preserve" text-anchor="middle" x="207" y="-45.92" font-family="Times,serif" font-size="14.00">3</text>
</g>
<!-- element1&#45;&gt;element2 -->
<!-- element2&#45;&gt;element0 -->
<g id="edge9" class="edge">
<title>element2&#45;&gt;element0</title>
<path fill="none" stroke="#0000ff" d="M179.65,-54.77C169.67,-44.77 157.44,-35.02 144,-29.72 121.68,-20.9 112.32,-20.9 90,-29.72 80.13,-33.61 70.91,-39.9 62.76,-46.93"/>
<polygon fill="#0000ff" stroke="#0000ff" points="60.38,-44.36 55.45,-53.74 65.15,-49.48 60.38,-44.36"/>
</g>
<!-- element3 -->
<g id="node4" class="node">
<title>element3</title>
<path fill="lightgrey" stroke="black" d="M282,-38.72C282,-38.72 312,-38.72 312,-38.72 318,-38.72 324,-44.72 324,-50.72 324,-50.72 324,-124.72 324,-124.72 324,-130.72 318,-136.72 312,-136.72 312,-136.72 282,-136.72 282,-136.72 276,-136.72 270,-130.72 270,-124.72 270,-124.72 270,-50.72 270,-50.72 270,-44.72 276,-38.72 282,-38.72"/>
<text xml:space="preserve" text-anchor="middle" x="297" y="-119.42" font-family="Times,serif" font-size="14.00">pos: 3</text>
<polyline fill="none" stroke="black" points="270,-112.22 324,-112.22"/>
<text xml:space="preserve" text-anchor="middle" x="297" y="-94.92" font-family="Times,serif" font-size="14.00">2</text>
<polyline fill="none" stroke="black" points="270,-87.72 324,-87.72"/>
<text xml:space="preserve" text-anchor="middle" x="297" y="-70.42" font-family="Times,serif" font-size="14.00">30</text>
<polyline fill="none" stroke="black" points="270,-63.22 324,-63.22"/>
<text xml:space="preserve" text-anchor="middle" x="297" y="-45.92" font-family="Times,serif" font-size="14.00">4</text>
</g>
<!-- element2&#45;&gt;element3 -->
<!-- element2&#45;&gt;element3 -->
<g id="edge10" class="edge">
<title>element2&#45;&gt;element3</title>
<path fill="none" stroke="#ff0000" d="M234.4,-87.72C241.89,-87.72 250.18,-87.72 258.2,-87.72"/>
<polygon fill="#ff0000" stroke="#ff0000" points="258.1,-91.22 268.1,-87.72 258.1,-84.22 258.1,-91.22"/>
</g>
<!-- element3&#45;&gt;element2 -->
<g id="edge11" class="edge">
<title>element3&#45;&gt;element2</title>
<path fill="none" stroke="#0000ff" d="M269.62,-100.21C262.13,-101.11 253.84,-101.41 245.82,-101.1"/>
<polygon fill="#0000ff" stroke="#0000ff" points="246.15,-97.61 235.91,-100.33 245.61,-104.59 246.15,-97.61"/>
</g>
<!-- element4 -->
<g id="node5" class="node">
<title>element4</title>
<path fill="lightgrey" stroke="black" d="M372,-38.72C372,-38.72 402,-38.72 402,-38.72 408,-38.72 414,-44.72 414,-50.72 414,-50.72 414,-124.72 414,-124.72 414,-130.72 408,-136.72 402,-136.72 402,-136.72 372,-136.72 372,-136.72 366,-136.72 360,-130.72 360,-124.72 360,-124.72 360,-50.72 360,-50.72 360,-44.72 366,-38.72 372,-38.72"/>
<text xml:space="preserve" text-anchor="middle" x="387" y="-119.42" font-family="Times,serif" font-size="14.00">pos: 4</text>
<polyline fill="none" stroke="black" points="360,-112.22 414,-112.22"/>
<text xml:space="preserve" text-anchor="middle" x="387" y="-94.92" font-family="Times,serif" font-size="14.00">3</text>
<polyline fill="none" stroke="black" points="360,-87.72 414,-87.72"/>
<text xml:space="preserve" text-anchor="middle" x="387" y="-70.42" font-family="Times,serif" font-size="14.00">40</text>
<polyline fill="none" stroke="black" points="360,-63.22 414,-63.22"/>
<text xml:space="preserve" text-anchor="middle" x="387" y="-45.92" font-family="Times,serif" font-size="14.00">5</text>
</g>
<!-- element3&#45;&gt;element4 -->
<!-- element3&#45;&gt;element4 -->
<g id="edge12" class="edge">
<title>element3&#45;&gt;element4</title>
<path fill="none" stroke="#ff0000" d="M324.4,-87.72C331.89,-87.72 340.18,-87.72 348.2,-87.72"/>
<polygon fill="#ff0000" stroke="#ff0000" points="348.1,-91.22 358.1,-87.72 348.1,-84.22 348.1,-91.22"/>
</g>
<!-- element4&#45;&gt;element3 -->
<g id="edge13" class="edge">
<title>element4&#45;&gt;element3</title>
<path fill="none" stroke="#0000ff" d="M359.62,-100.21C352.13,-101.11 343.84,-101.41 335.82,-101.1"/>
<polygon fill="#0000ff" stroke="#0000ff" points="336.15,-97.61 325.91,-100.33 335.61,-104.59 336.15,-97.61"/>
</g>
<!-- element5 -->
<g id="node6" class="node">
<title>element5</title>
<path fill="lightgrey" stroke="black" d="M462,-38.72C462,-38.72 492,-38.72 492,-38.72 498,-38.72 504,-44.72 504,-50.72 504,-50.72 504,-124.72 504,-124.72 504,-130.72 498,-136.72 492,-136.72 492,-136.72 462,-136.72 462,-136.72 456,-136.72 450,-130.72 450,-124.72 450,-124.72 450,-50.72 450,-50.72 450,-44.72 456,-38.72 462,-38.72"/>
<text xml:space="preserve" text-anchor="middle" x="477" y="-119.42" font-family="Times,serif" font-size="14.00">pos: 5</text>
<polyline fill="none" stroke="black" points="450,-112.22 504,-112.22"/>
<text xml:space="preserve" text-anchor="middle" x="477" y="-94.92" font-family="Times,serif" font-size="14.00">4</text>
<polyline fill="none" stroke="black" points="450,-87.72 504,-87.72"/>
<text xml:space="preserve" text-anchor="middle" x="477" y="-70.42" font-family="Times,serif" font-size="14.00">50</text>
<polyline fill="none" stroke="black" points="450,-63.22 504,-63.22"/>
<text xml:space="preserve" text-anchor="middle" x="477" y="-45.92" font-family="Times,serif" font-size="14.00">6</text>
</g>
<!-- element4&#45;&gt;element5 -->
<!-- element4&#45;&gt;element5 -->
<g id="edge14" class="edge">
<title>element4&#45;&gt;element5</title>
<path fill="none" stroke="#ff0000" d="M414.4,-87.72C421.89,-87.72 430.18,-87.72 438.2,-87.72"/>
<polygon fill="#ff0000" stroke="#ff0000" points="438.1,-91.22 448.1,-87.72 438.1,-84.22 438.1,-91.22"/>
</g>
<!-- element5&#45;&gt;element4 -->
<g id="edge15" class="edge">
<title>element5&#45;&gt;element4</title>
<path fill="none" stroke="#0000ff" d="M449.62,-100.21C442.13,-101.11 433.84,-101.41 425.82,-101.1"/>
<polygon fill="#0000ff" stroke="#0000ff" points="426.15,-97.61 415.91,-100.33 425.61,-104.59 426.15,-97.61"/>
</g>
<!-- element6 -->
<g id="node7" class="node">
<title>element6</title>
<path fill="lightgrey" stroke="black" d="M552,-38.72C552,-38.72 582,-38.72 582,-38.72 588,-38.72 594,-44.72 594,-50.72 594,-50.72 594,-124.72 594,-124.72 594,-130.72 588,-136.72 582,-136.72 582,-136.72 552,-136.72 552,-136.72 546,-136.72 540,-130.72 540,-124.72 540,-124.72 540,-50.72 540,-50.72 540,-44.72 546,-38.72 552,-38.72"/>
<text xml:space="preserve" text-anchor="middle" x="567" y="-119.42" font-family="Times,serif" font-size="14.00">pos: 6</text>
<polyline fill="none" stroke="black" points="540,-112.22 594,-112.22"/>
<text xml:space="preserve" text-anchor="middle" x="567" y="-94.92" font-family="Times,serif" font-size="14.00">5</text>
<polyline fill="none" stroke="black" points="540,-87.72 594,-87.72"/>
<text xml:space="preserve" text-anchor="middle" x="567" y="-70.42" font-family="Times,serif" font-size="14.00">60</text>
<polyline fill="none" stroke="black" points="540,-63.22 594,-63.22"/>
<text xml:space="preserve" text-anchor="middle" x="567" y="-45.92" font-family="Times,serif" font-size="14.00">0</text>
</g>
<!-- element5&#45;&gt;element6 -->
<!-- element5&#45;&gt;element6 -->
<g id="edge16" class="edge">
<title>element5&#45;&gt;element6</title>
<path fill="none" stroke="#ff0000" d="M504.4,-87.72C511.89,-87.72 520.18,-87.72 528.2,-87.72"/>
<polygon fill="#ff0000" stroke="#ff0000" points="528.1,-91.22 538.1,-87.72 528.1,-84.22 528.1,-91.22"/>
</g>
<!-- element6&#45;&gt;element0 -->
<g id="edge18" class="edge">
<title>element6&#45;&gt;element0</title>
<path fill="none" stroke="#ff0000" d="M539.56,-55C529.57,-45.02 517.35,-35.23 504,-29.72 356.03,31.34 304.06,-21.16 144,-18.72 120,-18.35 111.92,-8.94 90,-18.72 79.63,-23.34 70.27,-30.65 62.15,-38.82"/>
<polygon fill="#ff0000" stroke="#ff0000" points="59.66,-36.35 55.47,-46.09 64.82,-41.09 59.66,-36.35"/>
</g>
<!-- element6&#45;&gt;element5 -->
<g id="edge17" class="edge">
<title>element6&#45;&gt;element5</title>
<path fill="none" stroke="#0000ff" d="M539.62,-100.21C532.13,-101.11 523.84,-101.41 515.82,-101.1"/>
<polygon fill="#0000ff" stroke="#0000ff" points="516.15,-97.61 505.91,-100.33 515.61,-104.59 516.15,-97.61"/>
</g>
<!-- element7 -->
<g id="node8" class="node">
<title>element7</title>
<path fill="lightgrey" stroke="black" d="M642,-38.72C642,-38.72 672,-38.72 672,-38.72 678,-38.72 684,-44.72 684,-50.72 684,-50.72 684,-124.72 684,-124.72 684,-130.72 678,-136.72 672,-136.72 672,-136.72 642,-136.72 642,-136.72 636,-136.72 630,-130.72 630,-124.72 630,-124.72 630,-50.72 630,-50.72 630,-44.72 636,-38.72 642,-38.72"/>
<text xml:space="preserve" text-anchor="middle" x="657" y="-119.42" font-family="Times,serif" font-size="14.00">pos: 7</text>
<polyline fill="none" stroke="black" points="630,-112.22 684,-112.22"/>
<text xml:space="preserve" text-anchor="middle" x="657" y="-94.92" font-family="Times,serif" font-size="14.00">&#45;1</text>
<polyline fill="none" stroke="black" points="630,-87.72 684,-87.72"/>
<text xml:space="preserve" text-anchor="middle" x="657" y="-70.42" font-family="Times,serif" font-size="14.00">&#45;1</text>
<polyline fill="none" stroke="black" points="630,-63.22 684,-63.22"/>
<text xml:space="preserve" text-anchor="middle" x="657" y="-45.92" font-family="Times,serif" font-size="14.00">&#45;1</text>
</g>
<!-- element6&#45;&gt;element7 -->
<!-- element8 -->
<g id="node9" class="node">
<title>element8</title>
<path fill="lightgrey" stroke="black" d="M732,-38.72C732,-38.72 762,-38.72 762,-38.72 768,-38.72 774,-44.72 774,-50.72 774,-50.72 774,-124.72 774,-124.72 774,-130.72 768,-136.72 762,-136.72 762,-136.72 732,-136.72 732,-136.72 726,-136.72 720,-130.72 720,-124.72 720,-124.72 720,-50.72 720,-50.72 720,-44.72 726,-38.72 732,-38.72"/>
<text xml:space="preserve" text-anchor="middle" x="747" y="-119.42" font-family="Times,serif" font-size="14.00">pos: 8</text>
<polyline fill="none" stroke="black" points="720,-112.22 774,-112.22"/>
<text xml:space="preserve" text-anchor="middle" x="747" y="-94.92" font-family="Times,serif" font-size="14.00">&#45;1</text>
<polyline fill="none" stroke="black" points="720,-87.72 774,-87.72"/>
<text xml:space="preserve" text-anchor="middle" x="747" y="-70.42" font-family="Times,serif" font-size="14.00">&#45;1</text>
<polyline fill="none" stroke="black" points="720,-63.22 774,-63.22"/>
<text xml:space="preserve" text-anchor="middle" x="747" y="-45.92" font-family="Times,serif" font-size="14.00">&#45;1</text>
</g>
<!-- element7&#45;&gt;element8 -->
</g>
</svg>
