<?xml version="1.0" encoding="UTF-8" standalone="no"?>
<!DOCTYPE svg PUBLIC "-//W3C//DTD SVG 1.1//EN"
 "http://www.w3.org/Graphics/SVG/1.1/DTD/svg11.dtd">
<!-- Generated by graphviz version 14.0.2 (20251019.1705)
 -->
<!-- Title: G Pages: 1 -->
<svg width="152pt" height="107pt"
 viewBox="0.00 0.00 152.00 107.00" xmlns="http://www.w3.org/2000/svg" xmlns:xlink="http://www.w3.org/1999/xlink">
<g id="graph0" class="graph" transform="scale(1 1) rotate(0) translate(4 103)">
<title>G</title>
<polygon fill="white" stroke="none" points="-4,4 -4,-103 148,-103 148,4 -4,4"/>
<!-- element0 -->
<g id="node1" class="node">
<title>element0</title>
<path fill="lightgrey" stroke="black" d="M12,-0.5C12,-0.5 42,-0.5 42,-0.5 48,-0.5 54,-6.5 54,-12.5 54,-12.5 54,-86.5 54,-86.5 54,-92.5 48,-98.5 42,-98.5 42,-98.5 12,-98.5 12,-98.5 6,-98.5 0,-92.5 0,-86.5 0,-86.5 0,-12.5 0,-12.5 0,-6.5 6,-0.5 12,-0.5"/>
<text xml:space="preserve" text-anchor="middle" x="27" y="-81.2" font-family="Times,serif" font-size="14.00">pos: 0</text>
<polyline fill="none" stroke="black" points="0,-74 54,-74"/>
<text xml:space="preserve" text-anchor="middle" x="27" y="-56.7" font-family="Times,serif" font-size="14.00">0</text>
<polyline fill="none" stroke="black" points="0,-49.5 54,-49.5"/>
<text xml:space="preserve" text-anchor="middle" x="27" y="-32.2" font-family="Times,serif" font-size="14.00">&#45;1</text>
<polyline fill="none" stroke="black" points="0,-25 54,-25"/>
<text xml:space="preserve" text-anchor="middle" x="27" y="-7.7" font-family="Times,serif" font-size="14.00">0</text>
</g>
<!-- element1 -->
<g id="node2" class="node">
<title>element1</title>
<path fill="lightgrey" stroke="black" d="M102,-0.5C102,-0.5 132,-0.5 132,-0.5 138,-0.5 144,-6.5 144,-12.5 144,-12.5 144,-86.5 144,-86.5 144,-92.5 138,-98.5 132,-98.5 132,-98.5 102,-98.5 102,-98.5 96,-98.5 90,-92.5 90,-86.5 90,-86.5 90,-12.5 90,-12.5 90,-6.5 96,-0.5 102,-0.5"/>
<text xml:space="preserve" text-anchor="middle" x="117" y="-81.2" font-family="Times,serif" font-size="14.00">pos: 1</text>
<polyline fill="none" stroke="black" points="90,-74 144,-74"/>
<text xml:space="preserve" text-anchor="middle" x="117" y="-56.7" font-family="Times,serif" font-size="14.00">0</text>
<polyline fill="none" stroke="black" points="90,-49.5 144,-49.5"/>
<text xml:space="preserve" text-anchor="middle" x="117" y="-32.2" font-family="Times,serif" font-size="14.00">10</text>
<polyline fill="none" stroke="black" points="90,-25 144,-25"/>
<text xml:space="preserve" text-anchor="middle" x="117" y="-7.7" font-family="Times,serif" font-size="14.00">0</text>
</g>
<!-- element0&#45;&gt;element1 -->
<!-- element1&#45;&gt;element0 -->
<g id="edge2" class="edge">
<title>element1&#45;&gt;element0</title>
<path fill="none" stroke="#0000ff" d="M89.62,-49.5C82.13,-49.5 73.84,-49.5 65.82,-49.5"/>
<polygon fill="#0000ff" stroke="#0000ff" points="65.92,-46 55.92,-49.5 65.92,-53 65.92,-46"/>
</g>
<!-- element1&#45;&gt;element0 -->
<g id="edge3" class="edge">
<title>element1&#45;&gt;element0</title>
<path fill="none" stroke="#ff0000" d="M89.62,-61.99C82.13,-62.89 73.84,-63.19 65.82,-62.88"/>
<polygon fill="#ff0000" stroke="#ff0000" points="66.15,-59.4 55.91,-62.11 65.61,-66.38 66.15,-59.4"/>
</g>
</g>
</svg>
